<svg xmlns="http://www.w3.org/2000/svg" width="1372.86" height="15731.468" viewBox="0 0 1372.86 15731.468">
  <path id="Path_23430" data-name="Path 23430" d="M-15907.244,166.722s-1299.451,1044.464-318.733,1510.306,796.226,876.319,612.948,941.489S-16562.8,2486.051-16628.072,3687.5s753.3,776.189,882.646,970.911C-15704,4785.228-15514.957,5188-16255.4,5462.6s39.229,809.092,392.287,1064.079,505.063,666.9-392.287,907.164c-863.032,201.047,543.931,439.67,509.974,892.453s-564.728,580.476-668.336,777.829c-306.717,592.737,366.4,312.759,550.649,845.259s661.985,750.25,186.337,1284.741-983.8,1503.29-833.611,2441.987S-14686.25,15157-15465.921,15897.438" transform="translate(16632.221 -166.332)" fill="none" stroke="#707070" stroke-width="1" stroke-dasharray="8"/>
</svg>
