<svg xmlns="http://www.w3.org/2000/svg" width="358.196" height="286.766" viewBox="0 0 358.196 286.766">
  <g id="Group_4788" data-name="Group 4788" transform="translate(-734.757 -752.013) rotate(-19)">
    <path id="Path_5802" data-name="Path 5802" d="M518.609,1230.425l-5.913,5.445-.012.473c1.667-.252,3.329-.565,5-.74a18.9,18.9,0,0,1,4.88.062,5.723,5.723,0,0,1-6.149,2.266c-4.061-.874-7.836.3-11.664,1.073-24.483,4.949-48.534,3.708-71.99-5.153-4.816-1.82-9.346-4.4-13.993-6.652a4.024,4.024,0,0,1-1.624-1.5c29.929,16.6,61.5,18.478,93.6,11.115.727-1.043,1.035-1.958,1.661-2.309,6.319-3.546,8.165-9.211,5.872-16.7-1.329-4.343-3.258-8.5-4.854-12.764-1.7-4.55-3-9.191-2.634-14.129.075-1.007.266-2,.425-3.164-2.83-1.085-3.8-3.595-4.528-6.279-2.162-8-4.292-16.013-6.514-24-.6-2.156-1.576-4.206-2.186-6.361a8.32,8.32,0,0,1,.148-2.685c.877.087,1.922-.1,2.6.307,4.462,2.689,8.817,2.34,13.14-.224,5.057-3,10.09-6.038,15.008-9.31a13.26,13.26,0,0,0-9.33,2.092,29.283,29.283,0,0,0-3.785,2.779c-4.97,4.272-11.759,2.774-15.3.566a4.6,4.6,0,0,1-2.429-4.409c.164-2.374.347-4.753.68-7.107,1.068-7.559-.569-14.6-3.955-21.32a7.786,7.786,0,0,0-.776-1.2c-1.543-2.022-2.681-1.964-4.01.206-1.67,2.726-3.184,5.56-5.024,8.167a59.7,59.7,0,0,1-15.757,15.3c-2.373,1.587-4.661,3.317-6.872,5.124-1.5,1.223-1.826,2.789-1.172,4.771a13.383,13.383,0,0,1-.223,9.391c-.219.542-.866.911-1.315,1.36-.29-.487-.6-.961-.863-1.464-.186-.36-.19-.892-.464-1.113a3.4,3.4,0,0,0-1.816-.939c-.337,0-.914.937-.969,1.493a30.85,30.85,0,0,0,.066,3.668c.017.716,0,1.432,0,2.149l-.606.317a13.022,13.022,0,0,1-1.548-2.032,15.323,15.323,0,0,1-.507-12.11,35.458,35.458,0,0,1,2.709-6.146c4.352-7.637,8.949-15.084,14.93-21.649,2.427-2.663,4.028-6.1,5.88-9.253a52.952,52.952,0,0,0,2.34-4.984c2.938-6.477,7.311-11.578,13.862-14.675,1.53-.724,2.905-1.769,4.374-2.629,1.729-1.012,2.6-2.343,1.9-4.409a3.792,3.792,0,0,1,.05-1.313,4.112,4.112,0,0,1,1.481.228c1.4.835,2.664,1.915,4.107,2.652,3.082,1.576,6.242.566,7.389-2.665a20.266,20.266,0,0,0-.619-15.295c-.723-1.657-2-1.958-3.523-1.136-2.527,1.363-4.91,1.839-7.236-1.578-.644,2.215-1.157,3.825-1.569,5.46a12.294,12.294,0,0,0-.348,2.629c-.041,1.4-.44,2.413-2.188,2.275a21.624,21.624,0,0,1,.859,2.458c.106.474.066,1.379-.125,1.443a2.37,2.37,0,0,1-1.673-.1c-1.6-.819-2.345-3.6-1.761-5.449a17.96,17.96,0,0,0,.475-3.454c.167-1.537.293-3.079.467-4.615a1.08,1.08,0,0,1,.336-.728c3.5-2.168,5.63-6.572,10.783-6.076,2.888.278,5.136,1.311,6.242,3.847a79.12,79.12,0,0,1,2.667,8.517c1.36.279,1.791,2.016,1.091,4.482a21.488,21.488,0,0,0-.759,6.156c.033,1.91,1.282,2.777,2.849,2.041,5.354-2.516,11.206-2.736,16.853-3.889,8.444-1.723,14.909-5.824,17.752-14.41.111-.334.383-.616,1.073-.8a7.286,7.286,0,0,1-.369,2.121c-1.294,2.541-2.566,5.109-4.095,7.51-2.052,3.223-1.7,6.36.033,9.445,1.229,2.181,3.431,2.418,5.372.795a8.835,8.835,0,0,0,3.02-6.264c.257-2.642.681-5.277.768-7.924a27.9,27.9,0,0,0-2.875-12.535c-1.037-2.274-1.474-4.371.308-6.457a5.639,5.639,0,0,1,9.553,1.206,8.618,8.618,0,0,1,.477,1.34c1.26,4.451-.217,6.661-4.747,7.04-.682,4.012-1.765,7.864-.1,12.107,1.015,2.583.53,5.77.634,8.688.076,2.146.015,4.3.015,6.447l.613.335a2.358,2.358,0,0,1,.27-.762c1.917-2.281,2.711-2.343,5.04-.4,2.094,1.748,4.127,3.563,7.024,3.909,2.728.326,4.151-.246,4.822-2.881a19.882,19.882,0,0,0,.525-6.817,4.6,4.6,0,0,0-4.722-4.461,5.933,5.933,0,0,0-5.7,4.68c-.254,1.052-.592,2.084-.891,3.126l-.6.034a6.021,6.021,0,0,1-.969-1.386,17.778,17.778,0,0,1-.461-11.223c.8-2.563,2.159-3.551,4.825-3.541,2.25.008,4.506.083,6.746.274,3.057.26,3.774,1.165,4.1,4.147.074.681.9,1.752,1.481,1.817a25.132,25.132,0,0,0,4.985-.158,11.045,11.045,0,0,0,2.233-.843,12.04,12.04,0,0,1-.8,3.055c-1.527,2.4-3.106,4.788-4.858,7.03-1.6,2.048-2.916,4.16-2.711,6.83.057.754.739,1.461,1.135,2.19.574-.4,1.34-.679,1.692-1.224q5.813-8.992,11.485-18.074a12.391,12.391,0,0,0,1.048-2.8c-1.337-.6-2.786-.8-3.391-1.621-1.051-1.429-.254-4.189,1.13-5.391,3.04-2.642,6.04-2.727,8.557.4a147.638,147.638,0,0,1,8.8,12.5c1.187,1.838,2.5,3.289,4.635,3.648,4.414.742,8.839,1.529,13.294,1.9,4.309.362,5.741,2.36,3.944,6.337a7.579,7.579,0,0,1-7.127,4.881c2.239,1.9,1.857,3.986.991,6.1-.941,2.3-1.217,4.544.321,6.923,1.123-6.445,4.815-11.258,8.8-15.845a4.287,4.287,0,0,0,1.083-3.842,41.178,41.178,0,0,1,.071-14.222c.9-4.255,3.3-7.134,7.582-8.186,4.552-1.118,8.552-.1,11.6,3.6,3.3,4,4.38,8.881,4.983,13.832,1.11,9.114,2.013,18.253,3.342,27.455a11.521,11.521,0,0,0,.363-1.532,22.045,22.045,0,0,0-1.085-10.061,18.21,18.21,0,0,1-.578-2.781l.625-.374a14.187,14.187,0,0,1,1.911,1.514,25.472,25.472,0,0,1,5.631,10.529c1.306,4.8,3.118,9.247,6.993,12.661a21.991,21.991,0,0,1,3.443,4.3c3.768,5.585,7.586,11.143,11.127,16.87a33.135,33.135,0,0,1,3.12,7.472c.773,2.447-.385,4.539-2.122,6.239a6.39,6.39,0,0,1-1.94.887,12.063,12.063,0,0,1-.784-2.151,5.885,5.885,0,0,1,.2-1.734l-1.906.88a11.723,11.723,0,0,1-.808-2.193c-.237-1.474-.241-2.986-.473-4.461a10.592,10.592,0,0,0-3.806-6.982c-3.45-2.779-6.755-5.738-10.132-8.606a30.1,30.1,0,0,1-8.709-11.434c-.246-.6-.578-1.156-.87-1.732l-.66.22c.634,2.269,1.267,4.539,2.011,7.206a5.3,5.3,0,0,1-1.794.162c-3.259-.694-5.345-2.848-6.725-5.75-.549-1.154-.958-2.374-1.437-3.578a23.89,23.89,0,0,0-3.9,17.443,61.237,61.237,0,0,1,.611,13.025,79.242,79.242,0,0,0,1.128,18.693c.252,1.413-.251,2.96-.407,4.447a18.063,18.063,0,0,1-3.909-2.092c-2.118-1.906-3.984-4.092-6.191-6.411a23.6,23.6,0,0,0-3.066,10.168,66.922,66.922,0,0,0,.325,7.11,45.9,45.9,0,0,1-2.22,15.685c-.371,1.166-.7,2.348-1.141,3.488a20.939,20.939,0,0,0-.55,13.229,28.191,28.191,0,0,1,.674,2.98c.426,2.818-.141,4.138-2.048,4.98a5.769,5.769,0,0,1-6.7-1.476c-.288-.372-.5-.8-.82-1.313-.55.589-1.042,1.117-1.536,1.642-1.793,1.911-1.674,2.622,1,2.967a73.024,73.024,0,0,0,9.373.41c19.257-.01,38.465.619,57.425,4.4,10.122,2.018,19.969,4.863,28.92,10.2.7.418,1.364.9,2.024,1.375.141.1.2.321.506.858a6.556,6.556,0,0,1-1.439-.418c-10.138-6.441-21.475-9.494-33.118-11.62-18.879-3.446-37.957-3.915-57.081-3.747a40.737,40.737,0,0,1-8.083-.848c-1.711-.333-2.367-2.287-1.1-3.26,4.066-3.126,2.894-7.151,2.123-11.025-.781-3.924-2.276-7.723-2.872-11.664a70.97,70.97,0,0,1-.78-12.974,21.465,21.465,0,0,0-2.224-11.039,48.9,48.9,0,0,1-5.4-16.474c-.913-.146-1.769-.292-2.628-.418-3.365-.5-4.69-2.313-3.964-5.7a27.522,27.522,0,0,1,6.614-12.484,35.476,35.476,0,0,0,2.255-3.314c1.97-2.838,3.647-5.959,6-8.431,4.058-4.255,3.876-9.189,3.23-14.343a3.477,3.477,0,0,0-.689-1.236,8.791,8.791,0,0,1-.773-8.206c1.379-3.772,1.03-4.4-2.636-6.026-4.22-1.877-8.383-3.884-12.547-5.883-4.336-2.08-6.82-5.661-8.264-10.142-.789-2.449-1.794-4.833-2.81-7.2a2,2,0,0,0-1.38-.932c-.274-.043-.831.589-.974,1.014-2.333,6.918-6.461,12.84-10.456,18.832a25.961,25.961,0,0,1-2.917,3.677c-.535.552-1.646,1.205-2.136.991a3.639,3.639,0,0,1-1.871-2.128,8.1,8.1,0,0,1,1.463-6.565c.861-1.3,2-2.414,2.912-3.686,1.254-1.753,2.408-3.578,3.8-5.657a42.693,42.693,0,0,1-4.781.371c-2.773-.108-3.5-1.093-3.865-3.84a3.055,3.055,0,0,0-1.922-2.139,44.341,44.341,0,0,0-9.146-.365c-1,.086-2.189,1.717-2.689,2.9-1.075,2.529-.648,7.424.641,10.542.221-.907.369-1.513.516-2.119a6.906,6.906,0,0,1,6.685-5.286,5.647,5.647,0,0,1,5.555,5.5,20.392,20.392,0,0,1-.487,7.007c-.872,3.323-3.152,4.616-6.427,3.528a25.777,25.777,0,0,1-6.657-3.74c-2.452-1.763-3.088-1.81-4.515.842a6.089,6.089,0,0,0-.938,2.856c.268,7.178-1.674,13.854-4.325,20.407-1.172,2.9-1.11,2.953,1.906,3.773a82.156,82.156,0,0,0,18.227,2.365c-2.276-3.887-1.351-7.51-.033-11.182a20.007,20.007,0,0,0,.712-4.115,10.659,10.659,0,0,1,.231-2.62c.288-.683,1.11-1.141,1.7-1.7.44.828.91,1.642,1.293,2.5.077.173-.12.542-.288.74-2.317,2.748-1.318,5.59-.237,8.418.583,1.523,1.22,3.028,1.884,4.518,1.452,3.264,1.462,3.263-1.512,4.29a54.566,54.566,0,0,1,4.021,5.413c2.028,3.516,1.412,6.93-1.041,10.07-1.972,2.524-3.914,5.072-5.931,7.56-1.853,2.286-2.641,4.644-1.33,7.533a4.146,4.146,0,0,1-1.372,5.3,4.614,4.614,0,0,1-3.136.8c-.453-.064-.716-1.583-1.029-2.455a4.777,4.777,0,0,1-.155-.911c-.228-.105-.358-.225-.462-.206-3.818.706-4.157.278-5.249-3.556-1.128-3.96-2.722-7.787-4.083-11.682a49.546,49.546,0,0,0-4.233-8.659c-1.955-3.34-2.1-7.256-2.056-11.11a3.3,3.3,0,0,0-.823-2.2,3.421,3.421,0,0,1-.759-4.083c2.314-6.519,4.573-13.057,6.846-19.591a2.925,2.925,0,0,0,.216-.985c-.121-5.376-.224-10.754-.429-16.127a5.793,5.793,0,0,0-1.2-3.06c-.258,2.6-.472,5.2-.786,7.785a8.732,8.732,0,0,1-3.487,6.234c-2.473,1.832-5.01,1.337-6.623-1.274-1.629-2.637-1.629-5.521-1.123-8.746-5.889,4.7-12.838,5.469-19.684,6.647a43.293,43.293,0,0,0-7.64,2.076c-3.968,1.47-5.118.949-5.9-3.172-4.362,7.746-5.554,8.01-13.991,2.853.989,2.989-.824,4.386-2.83,5.638-1.618,1.009-3.227,2.047-4.926,2.9a25,25,0,0,0-11.477,11.776c-1.04,2.141-2.148,4.255-3.079,6.442a42.134,42.134,0,0,1-7.845,11.869c-6.153,6.755-10.764,14.548-14.824,22.659a16.244,16.244,0,0,0-1.06,13.258c.112.3.283.586.675,1.386-.081-1.547-.21-2.555-.167-3.556.056-1.314.226-2.695,1.851-3.014a2.619,2.619,0,0,1,3.176,1.913c.117.31.279.6.526,1.132a11.411,11.411,0,0,0,.308-8.921,4.82,4.82,0,0,1,1.4-5.871,37.143,37.143,0,0,1,5.172-3.986,61.65,61.65,0,0,0,21.96-23.723c1.979-3.756,4.475-3.855,6.535-.118a35.662,35.662,0,0,1,4.319,23.239,26.274,26.274,0,0,0-.568,6.07,5.408,5.408,0,0,0,1.913,3.508,11.4,11.4,0,0,0,13.882-.23c4.5-3.64,9.324-6.1,15.309-5.611a2.875,2.875,0,0,0,1.476-.543c2.074-1.209,2.771-1.1,4.347.752a7.253,7.253,0,0,0,.854.83c.078.065.257.01.782.01-.547-2.566-.96-5.077-1.626-7.518-2.257-8.259-4.669-16.476-6.868-24.751a22.705,22.705,0,0,1-.63-6.258,5.7,5.7,0,0,1,3.882-5.688,3.619,3.619,0,0,0,2.334-2.515c2.4-6.689,9.1-9.619,15.351-6.756a8.068,8.068,0,0,1,1.827,1.688,12.7,12.7,0,0,1-1.909,1.234c-4.635,1.955-9.331,3.774-13.9,5.866-.762.349-1.329,1.784-1.439,2.777-.737,6.654.287,13.192,1.86,19.618,1.112,4.546,2.7,8.974,4.022,13.471a37.924,37.924,0,0,1,1.181,4.944,4.236,4.236,0,0,1-1.846,4.263,2.172,2.172,0,0,0-.777,1.682c.91,6.7.038,13.333-.614,19.969-.5,5.076-1.221,10.13-1.8,15.2-.266,2.308-1.106,3.02-4.457,3.119.412,2.355.4,4.818,1.29,6.892,2.622,6.1,2.05,12,.008,18.091-1.81,5.4-3.346,10.909-4.636,16.456-.375,1.611.443,3.529.847,5.276.195.843.812,1.584,1.038,2.426.792,2.952-.44,4.674-3.479,4.734a16.89,16.89,0,0,1-5.042-.453A15.7,15.7,0,0,1,518.609,1230.425Zm19.444-75.252c-.163.2-.42.379-.475.605q-2.107,8.777-4.169,17.565c-.359,1.539-.627,3.1-.94,4.672,2.414.28,3.079-.3,3.312-2.449q1.112-10.216,2.237-20.444c.23-5.088.917-10.2-.495-15.21,0,2.8.275,5.582.417,8.374C538.058,1150.578,538.022,1152.877,538.053,1155.173Zm101.239-67.416a40.929,40.929,0,0,0-8.364,12.616c-1,2.528-1.489,5.242.525,7.739a6.338,6.338,0,0,1,1.054,2.628c1.412,6.68-1.4,11.8-6.205,16.07-1.571,1.4-3.43,2.471-5.046,3.825a5.685,5.685,0,0,0-1.749,2.37c-1.658,5-1.6,10.18-1.313,15.368.065,1.172.661,1.45,1.744,1.385,3.606-.219,7.214-.426,10.825-.508a2.714,2.714,0,0,0,2.476-1.281c3.911-5.42,9.379-7.686,15.947-7.348,3.681.189,4.853,2.371,3.024,5.527-1.159,2-2.548,3.86-3.83,5.786-2.889,4.338-2.9,4.349.726,7.955,1.816,1.807,3.675,3.571,5.515,5.353l.549-.269a12.608,12.608,0,0,0-.019-2.3,93.924,93.924,0,0,1-1.411-19.7c.119-5.082-.377-10.184-.722-15.269-.276-4.077-.106-8.069,1.964-11.7a19.86,19.86,0,0,0,2.653-10.844c-.155-5.225-.258-10.3-2.954-15.012-1.1-1.926.072-3.28,2.322-3.009a5.779,5.779,0,0,1,4.968,5.21c.78,5.15-.457,10.073-2.243,14.774-1.757,4.623.125,8.063,2.859,11.3.937,1.108,2.552,1.645,3.913,2.477-.464-2.529-1.01-4.572-1.181-6.645-.288-3.5-.176-7.029-.521-10.519-.857-8.665-1.752-17.329-2.879-25.962-.611-4.676-1.961-9.156-5.4-12.746-4.121-4.306-14.751-3.66-16.213,4.264-.79,4.284-.519,8.77-.646,13.166a17.675,17.675,0,0,0,.463,3.073l2.966-1.556c-.611-1.177-1.206-2.175-1.662-3.232-1.342-3.109-1.869-6.313-.278-9.463a7.943,7.943,0,0,1,7.778-4.645c3.314.1,4.905,2.373,5.839,5.173a22.144,22.144,0,0,1,1.266,5.342,10.417,10.417,0,0,1-3.293,8.474c-1.909,1.841-4.211,1.882-7.107.718,1.527,2.033,2.663,3.635,3.9,5.155.848,1.044.672,1.747-.355,2.535-2.731,2.094-5.716,1.7-7.5-1.224A52.134,52.134,0,0,1,639.293,1087.757ZM518.759,1185c-1.346,3.154-3.631,3.978-6.676,3.563-.151,1.178-.38,2.244-.409,3.316-.129,4.793,1.4,9.228,2.976,13.667,2.2,6.217,5.821,12.008,5.778,18.958a6.751,6.751,0,0,0,.682-2.515c.033-6.118.306-12.255-.08-18.35-.568-8.964-1.6-17.9-2.51-26.84a2.671,2.671,0,0,0-1.19-1.8c-1.639-.891-2.351-2.2-1.8-3.88a10.7,10.7,0,0,0-.282-6.961,11.285,11.285,0,0,1-.506-2.6,6.9,6.9,0,0,1,2.184-5.709,4.8,4.8,0,0,1,1.412-.661c.219.527.65,1.066.619,1.578a28.451,28.451,0,0,1-.613,4.848c-1.026,4.263-1.116,8.418.7,11.961l12.332,3.579c.859-2.944,1.7-5.946,2.609-8.931,2.492-8.225,3.761-16.577,2.676-25.178-.478-3.785-3.916-5.1-7.224-2.995-5.279,3.366-10.615,6.652-16.03,9.794a11.82,11.82,0,0,1-12.63-.023,17.04,17.04,0,0,0-2.407-.892c.493,1.6.809,2.685,1.156,3.757.92,2.843,1.961,5.651,2.757,8.528,1.814,6.548,3.49,13.135,5.269,19.693a17.451,17.451,0,0,0,1.366,3.614c1.11,2.085,2.489,2.335,4.489,1.214C514.974,1184.862,516.615,1183.925,518.759,1185Zm.687-9.716c0,.4-.027.725,0,1.047.881,9.135,1.873,18.262,2.623,27.408.682,8.324,1.623,16.71-1.86,24.739a1.942,1.942,0,0,0,1.451,2.967,23.4,23.4,0,0,0,5.2.742c2.758.043,3.654-1.313,2.817-3.942a8.679,8.679,0,0,0-.779-1.652,8.667,8.667,0,0,1-.985-6.879c1.552-5.482,3.09-10.973,4.838-16.395,1.721-5.333,2.228-10.548.185-15.948-.872-2.307-1.033-4.878-1.571-7.317-.131-.594-.323-1.454-.746-1.662C527.148,1176.689,523.6,1175.168,519.446,1175.284Zm124.628-19.233c-2.594-1.5-5.486-3.4-8.571-4.9-2.548-1.241-2.7-1.051-3.568,1.6-2.106,6.4-1.774,12.8-.31,19.305a42.8,42.8,0,0,1,1.03,9.854c-.066,5.364-.572,10.723-.925,16.081-.272,4.123-.609,8.243-.877,12.366a4.442,4.442,0,0,0,.25,1.788c.7,1.886,3.024,2.775,5.354,2.118,1.959-.552,2.757-1.906,1.968-4.381-2.125-6.656-1.48-13.022.914-19.524a36.2,36.2,0,0,0,1.874-19.263,8.513,8.513,0,0,1,.09-3.243C642.1,1164.149,643.022,1160.48,644.074,1156.051Zm-71.411-3.583c3.052-.2,4.47-2.216,3.446-4.985a7.866,7.866,0,0,1,1.452-8.356c2.2-2.684,4.319-5.444,6.4-8.226a7.538,7.538,0,0,0,.4-8.821c-1.661-2.892-3.74-5.364-7.523-5.458a50.526,50.526,0,0,1-5.713-.353c-4.9-.685-9.781-1.491-14.8-2.269-.111,4.854.118,9.8,3.2,13.576,1.274,0,2.3-.322,2.771.054,2.309,1.858,4.5,1.5,6.79.073a7.532,7.532,0,0,1,1.717-.626c1.765-.559,3.527-.768,4.951.722,1.468,1.536,1.313,3.4.578,5.162a30.907,30.907,0,0,1-2.892,5.831c-1.479,2.125-3.049,3.946-.812,6.52.27.312-.42,1.456-.664,2.215-.538-.5-1.344-.91-1.554-1.523-.366-1.066-.065-2.414-.568-3.368-1.832-3.473-3.335-6.954-2.163-10.729l-6.409-1.1a7.585,7.585,0,0,0,.5,1.745,47.774,47.774,0,0,1,5.314,14.913c.27,1.405,1.108,1.97,2.718,1.479,2.038-.621,2.713.029,2.8,2.2C572.62,1151.529,572.639,1151.924,572.663,1152.468Zm121.531-.951c2.76-2.078,3.768-4.289,2.731-6.9a58.463,58.463,0,0,0-4.419-8.675c-2.363-3.888-4.923-7.663-7.532-11.393a75.927,75.927,0,0,0-6.453-8.4,21.375,21.375,0,0,1-4.77-7.733c-.684-1.991-1.251-4.022-1.941-6.01a24.414,24.414,0,0,0-5.308-8.839c2.44,9.109,1.443,10.143.773,14.986a9.46,9.46,0,0,0,.215,4.344,27.173,27.173,0,0,0,7.24,11.447c3.464,3.078,6.785,6.361,10.509,9.091a14.543,14.543,0,0,1,6.294,12.347,21.236,21.236,0,0,0,.31,2.346l2.087-2.995.7.181C694.5,1147.244,694.359,1149.176,694.195,1151.516Zm-75.578-.559c.731,6.159,2.993,11.591,5.652,16.9a19.293,19.293,0,0,1,1.845,11.291,26.413,26.413,0,0,0,.126,7.924c.956,5.131,2.356,10.18,3.556,15.266.217.922.354,1.863.528,2.8a3.709,3.709,0,0,0,.463-2.082c.152-5.511.056-11.044.538-16.526.493-5.615.707-11.1-1.15-16.54a17.857,17.857,0,0,1-.567-4.645c-.308-5.121.036-10.17,2.263-15.23Zm-23.484-86.33c.01,2.247.623,2.658,2.337,1.75a3.659,3.659,0,0,0,1.275-1.207c1.229-1.884,2.7-2.079,3.992-.244a13.087,13.087,0,0,1,2.147,4.36c1.419,6.076,5.351,10.4,9.979,14.053a42.162,42.162,0,0,0,9.933,5.879c4.377,1.8,7.851-.06,9.357-4.2,1.044-2.866.277-4.13-2.74-4.374-2.716-.219-5.453-.229-8.154-.555-5.469-.66-10.023-2.366-12.714-8.029-1.854-3.9-5.118-7.161-7.889-10.6-1.155-1.434-2.8-1.482-4.471-.669C596.432,1061.652,594.988,1062.682,595.133,1064.628Zm60.314,13.081c-.789-2.425-1.43-4.919-2.416-7.27a4.625,4.625,0,0,0-4.759-2.89,7.5,7.5,0,0,0-6.784,5.609c-1.061,4.228.528,7.943,3.1,10.972,2.941,3.463,7.1,2.649,9.135-1.435A40.689,40.689,0,0,0,655.447,1077.709Zm-21.729,71.542c2,.92,3.983,1.662,5.79,2.7,1.865,1.076,3.562,2.443,5.323,3.677,2.211-3.359,4.482-6.65,6.575-10.049,1.378-2.236.694-3.507-1.891-4.026C644.2,1140.488,636.361,1144.294,633.718,1149.251Zm-100.029-54c-2.348.581-3.851,1.938-4.019,4.182a20.088,20.088,0,0,0,.331,6.433c1.861,7.166,4.045,14.246,5.995,21.391,1.015,3.717,1.8,7.5,2.707,11.355,2.269-1.036,2.314-2.852,1.922-4.7a39.985,39.985,0,0,0-1.427-4.675C535.43,1118.305,532.606,1107.224,533.689,1095.255Zm-36.17-24.076c.086-.711.113-1.363.25-1.991.448-2.05.82-4.127,1.457-6.12.344-1.076,1.421-2.11,2.469-.9,1.886,2.172,3.677,1.6,5.8.515s3.3-.607,4.615,1.433c.176.273.385.526.579.788a13.146,13.146,0,0,0-1.758-5.172c-2.646-4.1-9.173-3.856-11.672.281a2.817,2.817,0,0,1-1.485,1.252,3.091,3.091,0,0,0-2.5,3.285c-.041,2.241-.635,4.665,1.463,6.435C496.866,1071.092,497.1,1071.079,497.519,1071.179Zm72.913,69.935a22.409,22.409,0,0,0,5.319-9.75,2.864,2.864,0,0,0-3.667-3.609,17.929,17.929,0,0,0-3.593,1.4c-2.053,1.011-4.012,1.224-5.955-.231a8.554,8.554,0,0,0-1.344-.645c.79,1.613.79,1.613,7.623,2.371C567.974,1134.284,567.931,1137.883,570.432,1141.114Zm-9.669-93.978c.347,1.459.57,2.392.793,3.324a18.486,18.486,0,0,1-3.664.619c-.558-.01-1.1-.865-1.933-1.578-.136,1-.649,2.184-.359,3.12,1.038,3.35,2.346,6.616,3.545,9.893a4.32,4.32,0,0,0,.294-1.084c.041-1.736,1.454-3.727-.911-5.076-.127-.073.165-.879.261-1.343.638.193,1.754.273,1.832.6a1.543,1.543,0,0,0,2.308,1.2,3.6,3.6,0,0,0,1.955-1.962,6.547,6.547,0,0,0-1.928-6.69A8.141,8.141,0,0,0,560.764,1047.136Zm56.94,86.634a25.066,25.066,0,0,0-5.652,11.07c-.76,3.9,1.117,5.457,4.838,4.649C617.163,1144.208,617.432,1139.016,617.7,1133.77Zm40.825-27.523.687.129c.638-3.009,1.477-5.993,1.845-9.035a17.054,17.054,0,0,0-.418-6.034c-.619-2.486-2.7-3.428-5.756-2.692C658.381,1094.054,659.034,1100.044,658.528,1106.247ZM535.5,1093.232c2.659-1.2,5.051-2.341,7.5-3.354,2.5-1.036,5.047-1.942,7.635-2.929C545.086,1083.079,537.531,1086.142,535.5,1093.232Zm94.928,15.574c0,1.494.018,2.676,0,3.856-.064,3.623-1.785,6.447-4.223,8.989-3.309,3.45-4.623,5.594-4.875,7.556C630.549,1123.063,634.359,1114.851,630.429,1108.806Zm18.674-16.164c-.768-.992-1.5-1.886-2.171-2.819-.716-.992-1.438-1.988-2.049-3.044-.665-1.148-1.244-2.023-2.843-1.251s-1.815,1.789-1.148,3.254c.449.986.77,2.038,1.3,2.978C643.962,1094.928,646.145,1095.241,649.1,1092.642ZM582.8,1114.915l-3.985-10.11-.58,0c-.342,2.3-1.009,4.617-.952,6.912C577.369,1115.377,579.375,1116.447,582.8,1114.915Zm-21.951-21.753c-2.162,5.438-4.378,10.886-6.442,16.391-.22.587.448,1.507.7,2.272l.7-.119c1.369-4.182,2.833-8.335,4.063-12.557A46.93,46.93,0,0,0,560.845,1093.163Zm53.619-8.654c-1.924-1.929-3.878-3.62-5.5-5.585-1.648-2-2.968-4.265-4.116-5.951C605.429,1077.722,609.029,1083.041,614.464,1084.509Zm-96.3,71.776c-2.742,2.51-3.177,6.367-1.211,8.674C517.344,1162.125,517.722,1159.419,518.159,1156.285Zm-5.21,30.808.414.907,3.911-1.78-.4-.887Zm46.407-138.98-2.011,1.566.421.649,3.262-.363Z" transform="translate(0 0)" fill="#384133" stroke="#384133" stroke-width="0.6"/>
  </g>
</svg>
