<svg id="Group_4752" data-name="Group 4752" xmlns="http://www.w3.org/2000/svg" width="60" height="60" viewBox="0 0 60 60">
  <g id="Ellipse_7" data-name="Ellipse 7" fill="none" stroke="#384133" stroke-width="1">
    <circle cx="30" cy="30" r="30" stroke="none"/>
    <circle cx="30" cy="30" r="29.5" fill="none"/>
  </g>
  <path id="Path_6777" data-name="Path 6777" d="M182.005,180.193a.808.808,0,0,1,.2-.477l5.552-5.9a.7.7,0,0,1,.981-.027.715.715,0,0,1,.027.982L184.3,179.5h17.828a.694.694,0,0,1,0,1.388H184.3l4.457,4.728a.726.726,0,0,1-.027.981.7.7,0,0,1-.981-.027l-5.552-5.9a.617.617,0,0,1-.2-.477Z" transform="translate(-162.827 -150.6)" fill="#384133"/>
</svg>
