<svg xmlns="http://www.w3.org/2000/svg" width="656" height="650.947" viewBox="0 0 656 650.947">
  <path id="Path_69059" data-name="Path 69059" d="M2797.318,3055.389c-.649-.281-1.171-1.547-.271-1.154C2797.688,3054.51,2798.223,3055.771,2797.318,3055.389Zm11.506,5.97c-1.411-.413.416,1.3.77,1.4C2810.6,3063.039,2810.723,3061.906,2808.823,3061.359Zm34.685,19.119c-1.819.174.93,1.22,1.581,1.354C2846.9,3081.633,2844.147,3080.632,2843.509,3080.478Zm3.8,90.3c-.906-.084-.942,1.107-1.261,1.887l3.784.822C2851.671,3171.044,2846.628,3172.554,2847.312,3170.779Zm42.732-96.576c-.1,1.54.962,1.613,2.073,1.6C2891.835,3074.73,2890.787,3074.67,2890.044,3074.2Zm5.643,8.911c-.449,1.9,2.237-.388,1.8,1.5C2898.749,3082.785,2897.1,3082.537,2895.687,3083.113Zm1.633,15.6c3.062,1.7,5.008-2.013,0,0Zm39.3,160.052c-2.871.722,2.47.6,3.18.41C2941.837,3258.634,2940.487,3257.79,2936.617,3258.766Zm75.588-217.156c.218-1.724-1.9.9-2.531,1.334C3009.423,3044.671,3011.6,3042.075,3012.205,3041.611Zm213.095-.147c-.372,1.855,1.109-.3,1.367-1.635C3227.021,3037.969,3225.568,3040.14,3225.3,3041.463Zm2.978-6.307c-1.26.972-.771,1.386-.957,2.8C3229.936,3037.188,3230.605,3026.742,3228.277,3035.156Zm-29.286-67.979c1.593-.667,1.962-3.134,2.093-5.861C3199.509,2962.02,3199.181,2964.468,3198.992,2967.177Zm-158.472-46.025c.373.715.905-.36.63-.874C3040.769,2919.564,3040.249,2920.645,3040.52,2921.152Zm-1.333-8.2c.607.731-.673,2.893,1.9,2.1l.083-.066c.13.058.271.127.44.21.35.177.778.394,1.306.62a1.982,1.982,0,0,0,1.707-.2c.46-.318.434-.746-.048-.955s-.865-.4-1.182-.561c-.135-.067-.237-.113-.35-.167l.089-.037C3042.171,2913.293,3041.9,2912.138,3039.187,2912.956Zm1.126-5.109.108.127a4.97,4.97,0,0,1,.6.819c.1.181.477.237.821.14s.55-.342.449-.525a5.523,5.523,0,0,0-.659-.9c-.093-.108-.193-.228-.3-.359l.357-.012c.015-1.787-1.174-2.5-1.739-3.775-1.176,1.067-.373.851-2.758,1.1C3037.792,2906,3037.237,2908.479,3040.313,2907.847Zm35.776-250.121c2.791,2.32,6.046,5.8,8.551,7.409,5.032,3.231,10.42,2.632,15.837,5.777,5.163,3.036,6.417,8.132,12.5,10.516l.5-.245a8.647,8.647,0,0,0,1.2,1.76.977.977,0,0,0,1.076.339c.318-.14.337-.543.053-.885-.178-.211-.33-.407-.477-.605a1.023,1.023,0,0,0-.174-1.424c.667-.553,1.886.647,2.918,1.292l.07-.285c.027.012.047.031.073.041a10.744,10.744,0,0,1,1.622.848c.583.351,1.239.3,1.448-.137s-.083-1.054-.668-1.406c-.417-.248-.82-.472-1.232-.681l.072-.033c-1.643-2-4.978-4.532-7.394-6.757s-3.895-4.178-1.716-5.148a116.24,116.24,0,0,0-17.094-12.109,99.468,99.468,0,0,0-18.219-8.574c-2.815.222-3.963,3.675-7.469,2.525C3069.7,2652.944,3073.348,2655.435,3076.089,2657.726Zm-95.083,181.367c1-1.855-1.033-.975-.39-2.019-.192-.293-.472.018-.751.353l-.865,1.145A1.716,1.716,0,0,1,2981.006,2839.094Zm94.474-178.438c.692-1.4-1.434-2.56-3.709-3.668C3071.99,2658.308,3073.229,2659.517,3075.481,2660.655ZM2887.1,2824.642a1.539,1.539,0,0,0,1.684-.94C2888.683,2821,2886.207,2822.509,2887.1,2824.642Zm-141.02-148.094a2.84,2.84,0,0,0,3.24-.14A2.8,2.8,0,0,0,2746.08,2676.548Zm-89.352,60.1c1.322.914,2.966-2.848,4.45-3.821-1.144-2.974-3.013,2.908-4.286,1.466-.655.528-.389.858-.085,1.178C2657.406,2735.731,2657.09,2736.184,2656.728,2736.65Zm-14.012,22.888c.854-1.6-1.133-.038-1.737,1.116C2640.142,2762.266,2642.106,2760.681,2642.716,2759.539Zm597.191,181.542a13.064,13.064,0,0,1,.2,1.392.726.726,0,0,1-.489.819c-.305.048-.578-.235-.616-.633a11.227,11.227,0,0,0-.292-1.722l-.241.154-1.48-.019a116.159,116.159,0,0,1-.651,15.177c-.446,5.259-.9,10.421-.539,14.747a133.3,133.3,0,0,0-4.294,17.485c-1.261,6.457-2.476,13.223-3.766,19.314-3.894,18.645-9.329,37.8-16.487,54.6a108.661,108.661,0,0,1-6.552,12.268,36.786,36.786,0,0,0-4.653,11.6c-1.544,3.307-3.888.878-5.354,4.93-1.453,6.422-6.177,11.131-8.776,14.084-1.995,2.28-4.143,5.131-6.134,7.688-6.175,7.916-11.752,11.961-15.972,16.2-6.441,6.421-12.779,13.555-19.25,20.5a242.469,242.469,0,0,1-19.655,19.318c-1.241,1.051-1.791-1.093-2.978-.3a33.887,33.887,0,0,1-9.292,9.395c-3.489,2.5-7.247,4.659-11.079,7.411-1.638,1.167-2.326,3.28-3.953,4.527-3.762,2.88-8.7,3.756-13.611,6.367-10.1,5.38-20.546,12.147-30.939,17.1-12.666,6.086-25.292,11.641-34.97,13.1a56.144,56.144,0,0,1-16.931,7.112c-5.549,1.411-11.195,2.324-17.855,3.914-2.538.6-4.121,2.381-6.442,2.911-.018.007-3.007-.788-3.242-.758l-13.667,2.539c-.666.234.967,2.006-.61,2.247.038-.006-.462-1.975-1.353-1.928-5.1.29-12.241,2.557-16.5,4.332-4.922-2.106-10.792-1.076-16.966-.163-6.151.919-12.611,1.711-18.037-.675-2.608,1.516-6.271,1.293-9.672,1.09s-6.557-.378-8.329,1.352c2.658,2.412,3.068,4.131,8.939,3.124,1.262,2.814-3.771,1.616-1.1,3.5,3.826,2.008,11.805,1.079,15.088,3.333a58.151,58.151,0,0,0,16.321.514c.638-.069,1.208.224,1.279.656l0,.046c.033.412-.418.792-1.035.856a60.937,60.937,0,0,1-17.338-.579l.077.151c-2.872,1.93-5.142-.6-8.3-.661.007.933,1.812.653,2.071,1.418-7.494-.34-10.815-.476-16.591-1.1l-.13-.305a10.1,10.1,0,0,1-5.079-.05l.031.073c-8.787-1-22.13-2.47-35.464-5.294-13.339-2.763-26.6-6.893-35.379-11.455-2.326-.379-1.845,2.7-4.763,1.6-.676-1.085-4.029-2.328-7.87-3.729a83.187,83.187,0,0,1-10.842-4.465l.1-.106a17.843,17.843,0,0,1-3.916-1.41v.151c-2.747.431-6.726-.93-10.708-2.828s-7.972-4.317-10.9-5.879l.281-.111c-2.1-1.875-4.736-2.978-7.524-4.179a33.378,33.378,0,0,1-6.681-3.539c-.618-.457-.781-1.145-.347-1.537a1.581,1.581,0,0,1,1.888.119,30.231,30.231,0,0,0,5.946,3.116,34.463,34.463,0,0,1,7.73,4.117c1.678-.229,4.155,2.536,6.708,1.591l.041.067.549-.247c.463-.217.954-.432,1.469-.64l-.541-.087c-8.226-2.162-12.58-7.766-20.363-12.425-9.207-5.53-19.828-10.526-30.266-16-10.427-5.455-20.655-11.4-28.751-18.136-5.44-4.532-9.193-7.241-13.384-10.235a111.178,111.178,0,0,1-11.417-10.076c-3.66-3.483-7.313-6.778-11.526-9.047-.653.573.437,1.5.33,2.182,10.814,11.834,23.186,21.917,35.7,30.756,15.594,11.008,32.514,20.952,49.822,31.476.785.478,1.131,1.276.805,1.84-.018.031-.037.06-.057.089a1.776,1.776,0,0,1-2.276.1c-17.211-10.472-34.153-20.423-49.762-31.44-12.906-9.1-25.67-19.51-36.816-31.836a2.257,2.257,0,0,1-.322-.484,155.089,155.089,0,0,1-20.335-22.623c1.564-3.031-1.909-4.044-4.818-8.76l.234-.057a13.7,13.7,0,0,1-1.008-1.113,1.243,1.243,0,0,1-.064-1.73,1.317,1.317,0,0,1,1.685.463c.122.153.259.3.392.443v-.012c3.019-2.006,2.466-7.266,4.506-8.72,2.17-1.542,4.791-.934,7.335-.853-2.871-4.442-5.527-8.369-8.5-12.536-.34-.476-.547-.955-.469-1.062.089-.092.418.193.757.669,3.088,4.326,5.844,8.389,8.807,12.942a6.4,6.4,0,0,0,4.118-1.28c-.362-.766-.527-1.354-.34-1.517.3.373.58.721.843,1.058,1.112-2.355-3.083-6.373-1.722-8.66a8.679,8.679,0,0,0,3.16-.249c-.417-.654-.825-1.3-1.213-1.932v-.1l-.591-.584-.436-.431a3.532,3.532,0,0,1-.752-1.152c-.092-.305.088-.293.406.036l.353.348.422.421-.05-.081a28.091,28.091,0,0,1,2.842,3.135c.173-1.56-2.726-4.118-1.374-5.31-.689-.718-1.928-2.6-1.628-2.58.913,1.231,0-.544.783.471-.079.254.273.9.623,1.534.114-.021.246,0,.567.479a24.552,24.552,0,0,1,7.388,4.219,77.267,77.267,0,0,1-4.653-6.809c-1.785-2.647-2.034-1.434-3.841-4.247-.883-1.4.6-.584-.7-2.391-2.666-3.519-3.694-6.444-5.521-9.774-2.612-4.791-5.583-9.247-8.222-14.654-.7-1.431-1.094-2.921-1.834-4.431a269.077,269.077,0,0,1-12.921-30.823c-.107-.857.581-.438-.224-2.421-.578-.884-1.292-3.669-1.775-3.613a9.973,9.973,0,0,1-.343-1.342,31.681,31.681,0,0,0-5-5.039c-.632-2.667-1.275-5.242-1.918-7.779a10.694,10.694,0,0,1-.78-1.912,11.2,11.2,0,0,1-.17-1.81c-2.63-10.2-5.157-19.54-6.746-29.005-.527-3.166-1.051-6.485-1.533-9.879-.024.11-.058.176-.1.18s-.112-.082-.162-.254a11.087,11.087,0,0,1-.269-2.639l-.065.106c.014-.585.017-1.147.016-1.7-.584-4.627-1.059-9.341-1.313-13.979-.546-9.535-.176-18.713,1.416-25.837.989-4.448,2.915-8.481,1.312-13.245l-.736-.082-.022-.147-.175.259c-.57.821-.692,1.038-.684,1.428a.976.976,0,0,1-.783,1.032.839.839,0,0,1-.129,0,.851.851,0,0,1-.693-.887,4.308,4.308,0,0,1,1.078-2.748l.095-.141a34.588,34.588,0,0,0,1.548-13.383c-.249-3.884-.87-7.2-.622-9.936.074-.81.2-1.615.337-2.419a2.88,2.88,0,0,1-.257.481c-.562-2.454,1.166-8.339,2.828-12.093l.023.051c.222-.883.48-1.717.735-2.471l-.051.035a38.644,38.644,0,0,1,1.84-8.538c.206-.665.433-1.336.666-2.007a12.824,12.824,0,0,0-.835,1,.473.473,0,0,1-.483.2.39.39,0,0,1-.161-.1.59.59,0,0,1,0-.748,10.465,10.465,0,0,1,1.623-1.771l-.263.027c8.327-19.266,16.391-37.681,24.906-57.724a11.232,11.232,0,0,0,3.737-2.522c.156-.193.31-.39.463-.6.278-.383.533-.582.57-.446,0,0,0,.017,0,.023a41,41,0,0,0,3.663-4.507c2.711-3.848,5.025-8.219,5.661-11.35a1.028,1.028,0,0,0-.557-.292c-.551.772-1.1,1.566-1.658,2.39-1.052,1.556-2.125,3.182-3.265,4.744-.364.5-.736.834-.849.76l-.01-.007c-.1-.1.12-.594.5-1.109.968-1.33,1.917-2.767,2.935-4.281.489-.725.991-1.455,1.5-2.182-1.021.853-1.934,2.962-3.162,1.478,2.715-3.463,2.515-5.956,5.8-9.5a20.686,20.686,0,0,0,2.449-1.115c.815-1.043,1.678-2.064,2.536-3.06.936-1.089,1.825-2.111,2.624-3.094.465-.577,1-1.024,1.2-1.009s-.024.489-.487,1.066c-.972,1.194-1.993,2.37-2.976,3.511-.507.59-.992,1.167-1.462,1.738,4.785-3.121,7.357-7.885,9.761-13.265,1.423-3.2,2.8-6.62,4.477-9.938-.986,1.013-3.205,3.545-5.267,5.825-2.11,2.314-4.065,4.343-4.576,4.04,2.452-3.06,5.552-6.665,8.879-10.125.8-.838,1.62-1.667,2.442-2.477a33.973,33.973,0,0,1,5.471-7.237,9.579,9.579,0,0,0,1.745.283c3.288-1.523,4.51-5.915,7.424-7.29,1.11-1.456-1.483-2.457,1.212-4.1,2.559-4.129,7.834-4.91,10.989-7.827,2.84-2.622,3.7-6.059,6.2-8.815,6.571-7.239,15.368-12.5,23.552-17.847a1.729,1.729,0,0,1,.861-.779,24.034,24.034,0,0,0,5.594-3.749,27.555,27.555,0,0,1,5.541-3.721,1.212,1.212,0,0,1,1.677.354,1.319,1.319,0,0,1-.863,1.547,24.686,24.686,0,0,0-4.808,3.266,30.276,30.276,0,0,1-5.86,3.975l.2.135c-3.4,3.854-8.682,7.7-13.69,11.741-5.014,4.021-9.745,8.229-12.08,12.368,6.1-2.886,12.655-7.794,19.328-12.889,6.655-5.1,13.429-10.391,19.421-14.221.828,2.1,4.092.465,6.445-.44a110.288,110.288,0,0,0,11.305-5.406c3.847-2.1,7.231-4.207,8.355-5.685-4.268,1.147-9.753,5.164-12.865,4.1.48-3.284,4.686-6.051,9.5-7.812a35.429,35.429,0,0,1,12.679-2.29c.195-.061.39-.119.585-.18.525-.166,1.055-.323,1.591-.468l-.091-.091c7.268-3.9,11.284-2.082,16.921-3.7,3.048-.872,7.868-1.6,9.292-4.768-5.227,1.869-10.336,3.9-13.31,2.483,2.385-1.538-1.413-1.906-1.371-3.271.94-2.291,7.6-2.948,7.125-5.614a8.024,8.024,0,0,0-7.886.511c-2.317,1.263-4.648,3.094-8.147,4.031-3.6.97-6.9-.679-10.828-.044-5.432.888-10.594,3.089-15.964,5.864s-10.955,6.127-17.365,9.425c-9.087,1.988-20.459,8.444-30.756,16.144-10.345,7.666-19.552,16.513-25.887,22.268-1.366-2.719.385-5.656,3.094-8.5s6.37-5.59,8.74-8.085c2.66-2.81,4.115-5.609,6.634-7.825,5.028-4.417,11.953-8.318,18.392-12.783,17.877-12.449,37.9-24.844,59.253-34.459,6.225-2.818,12.323-5.98,18.159-8.686s11.391-4.944,16.369-5.929c5.537-1.1,11.189-.2,16.156-.487,1.906,1.131,2.214,3.993,5.236,3.885,6.467-.132,12.044-.455,17.833-.932s11.792-1.1,19.077-1.611c-1.579.243-3.514.315-2.846,1.75,6.068-.748,11.926.68,17.683,1.62,5.783.94,11.461,1.393,17.731-1.248-7.363-1.254-8.541-7.114-12.7-10.828,5.078-3.221,12.9-3.744,20.678-2.912a115.3,115.3,0,0,1,20.222,4.376l.038.006a26.041,26.041,0,0,1,3.58.789c.784.248,1.163.874.837,1.4a1.783,1.783,0,0,1-1.989.505,22.557,22.557,0,0,0-3.04-.656l-.09-.015.062.189c-3.3.366-6.535.855-7.344,3.151-4.919-2.251-12.594-.094-14.234,2.536a48.151,48.151,0,0,1,11.767,2.475,53.213,53.213,0,0,0,12.076,2.574c1.34.53-.058,2.714,1.749,2.952,2.669-2.037,7.042.846,8.821.784,3.074-.112-3.39-1.8,2.125-1.193,2.152,2.22,3.567,1.914,2.586,3.125a438.18,438.18,0,0,1,72.891,14.621c13.806,3.933,27.556,9.354,40.584,14.9,5.179,2.2,10.9,3.549,15.84,6.045,5.908,2.98,10.935,6.225,15.6,8.972s8.994,5.022,13.6,6.165c-2.142-3.671-6.79-6.475-11.706-9.129s-10.1-5.182-13.484-8.648l.133-.087a10.282,10.282,0,0,1-1.891-.906,4.348,4.348,0,0,0-1.75-.729,1.309,1.309,0,0,1-1.173-.836.57.57,0,0,1,.055-.463.727.727,0,0,1,.676-.3,6.551,6.551,0,0,1,2.987,1.1,10.2,10.2,0,0,0,1.1.572c5.311.907,10.633,3.952,16.074,7.743,5.528,3.854,11.164,8.454,17.331,12.41l-.125.074a91.617,91.617,0,0,1,13.123,9.808c2.293,1.976,4.633,4.053,7,6.025.67.559.87,1.391.449,1.854a1.525,1.525,0,0,1-1.959-.166c-2.417-2.017-4.779-4.114-7.092-6.1a89.791,89.791,0,0,0-12.089-9.107c-.816.538-2.389-1.414-3.173-.774,1.395,3.726,4.855,6.258,9.015,8.92s9.005,5.465,12.972,9.542c7.545,7.7,17.772,16.589,26.667,25.845,8.917,9.21,16.471,18.723,19.331,26.218.732-.764.068-1.972.654-2.785,10.547,12.618,19.375,27.152,26.738,42.1,7.384,14.948,13.372,30.307,18.96,45.2,1.51,4.018,2.192,8.144,3.737,11.989,1.037,2.59,3.153,4.333,4.208,6.939,3.695,9.126,5.8,19.655,7.142,30.249,1.358,10.611,1.957,21.277,3.067,31.068.62,5.336,3.75,12.693,1.083,19.452Zm-84.375-149.791q6.161,9.636,11.478,19.706c.22-.321.445-.6.645-.844a5.351,5.351,0,0,0,.563-.767c-2.057-5.383-5.334-10.6-8.665-15.522l-.434-.638C3157.722,2793.887,3157.214,2788.776,3155.532,2791.29Zm-489.768,341.627c-1.748-1.9-3.521-3.913-5.212-5.916q-1.153-1.353-2.246-2.685a46.615,46.615,0,0,0,2.434,6.8q1.6,1.96,3.242,3.976A10.874,10.874,0,0,0,2665.764,3132.917Zm32.71-7.067a12.963,12.963,0,0,0,2.461,2.007,5.138,5.138,0,0,1,.165-2.011,25.576,25.576,0,0,1-4.117-2.885c.2.425,1.382,1.667.3.789C2697.256,3124.216,2699.9,3126.175,2698.474,3125.851Zm-3.228-21.782.119.161a4.319,4.319,0,0,1,.487.089l.193.037.271-.236c-1-1.5-3.756-3.7-5.987-6.485a6.349,6.349,0,0,1,2.623.7c1.21,2.653,4.9,5.573,6.863,8.584l.046.08c.057.034.106.058.171.1.349.254.664.5.965.733.552-.118,2.783,2.516,3.545,2.708,1.132,1.293-.408.151-.292.565.157.208.308.4.455.583,2.566,1.968,3.2,3.369,6.034,5.116,1.214,1.042-.21.689-.1,1.149.764.727,1.965,1.666,2.07,2.035l.092.087c1.951.725,4.607,3.923,6.729,5.691,1.131.948,1.414.656,1.977,1.12,2.194,1.791,1,1.176,2.086,2.111,2.439,2.1,4.9,2.983,4.5,3.883l-.108,0a13.488,13.488,0,0,1,2.43,1.86c.2.185.4.359.589.523l-.021-.038a4.234,4.234,0,0,1,.515.225,1.7,1.7,0,0,1,.612-.592c3.244,3.023,5.953,8.81,9.7,9.922l.856-1.1A14.7,14.7,0,0,1,2741,3141.9a.979.979,0,0,1,.24-1.469c.017-.009.037-.009.055-.019-3.914-2.5-5.963-4.956-7.742-6.046-.684-.527-.473-.695-.26-.862-1.989-1.34-2.238-.6-4.631-2.478-1.511-1.734-3.273-2.435-2.926-3.38-4.427-3.847-6.3-4.5-9.5-7.009-.8-.729-.2-.76-.048-1.011a134.139,134.139,0,0,0-11.765-9.97c-4.574-4.722-9.053-10.468-13.034-14.736-1.415-1.41-.679-1.332-1.617-2.423a149.2,149.2,0,0,1-14.883-19.183c-4.636-6.975-8.771-14.21-12.331-20.675.7.331.667.179,1.52.032a23.117,23.117,0,0,1-3.728-7.7c-1.413-2.216-2.253-1.694-3.892-5.281-.7-1.386.471-.557.552-1.02l-.861-1.82a.415.415,0,0,0-.137-.031c-.119.01-.345-.291-.512-.675s-.217-.716-.087-.7a.773.773,0,0,1,.352.1l-.092-.161c.2-2.31-5.152-5.1-4.487-8.935-.637-1.5-1.215-2.8-1.76-4.045a2.816,2.816,0,0,0-.514.019c3.294,5.844,1.36,9.01,4.271,14.454l-.1.01c.169.237.342.473.508.713,1.582-.146,2.171,3.627,1.887,4.341a1.86,1.86,0,0,1-1.567.329,77.816,77.816,0,0,0,5.605,10.291c.379.755.117.825-.152.887,1.319,1.481,2.467,4.3,3.627,6.307l.744-.4c-.1-.209-.212-.417-.326-.634l-.222-.427c-.113-.221-.134-.384-.044-.359a.974.974,0,0,1,.356.432l.207.4c.2.387.42.82.619,1.271l.026-.2c.683,1.25.966,1.11,1.455,1.681,1.391,2.226.508,2.27,2.411,4.928a1.345,1.345,0,0,0,.323.191,1.664,1.664,0,0,1,.495.3,2.429,2.429,0,0,1,.591.861c.062.166.066.27.019.3s-.106,0-.2-.079a.849.849,0,0,0-.263-.151,2.415,2.415,0,0,1-.821-.58l.116.218c-.263-.023-.688-.532-1.111-1.035.16,1.592,2.018,4.71,4.122,6.875.129,1.315,1.638,3.7,3.423,6.164s3.835,5,4.922,6.743l.029.142c.024.024.049.046.075.075.3.333.6.648.923.981s.65.674.983,1.036l-.03-.043c.2.039.508.314.948.873a.694.694,0,0,0,.36-.271.618.618,0,0,1,.816-.259c-.066-.078-.14-.161-.223-.256l-.516-.6c-.247-.3-.389-.6-.323-.669.036-.109.323.112.571.41l.422.491c.172.2.357.408.544.638a3.594,3.594,0,0,1,.552.56c.847,1.051,1.749,2.131,2.76,3.3.409.474.656.949.543,1.062l-.009.006c-.12.094-.539-.193-.94-.657-1.031-1.186-1.951-2.29-2.818-3.369-.315-.094-.457.069-.609.259a.671.671,0,0,1-.9.236l.528.645c1.947,2.094,1.315,2.287,2.4,3.724l-.082-.012a30.575,30.575,0,0,1,2.991,3.4l0-.043c1.43.781,3.094,3.3,4.984,5.463C2694.132,3103.317,2694.884,3104.041,2695.247,3104.068Zm-5.219,11.625c.367.712,0,.982,1.094,2.137,1.745,1.665,2.209,1.252,3.03,1.418C2692.446,3117.565,2691.346,3116.814,2690.028,3115.693Zm-12.561-12.255c-.908-1.25-1.407-1.458-1.6-2.082-.423-.433-.7-.592-.793-.362l-.094-.045.642.861a19.86,19.86,0,0,0,1.421,1.779C2677.287,3103.689,2677.512,3103.694,2677.467,3103.438Zm2.451.622.462.48a5.568,5.568,0,0,1,2.145,1.063l-.982-1.609-.25-.06c-2.007-2.231-4.279-5.172-4.6-4.183-2.31-2.532-.181-1.755-2.194-4.1-2.074-2.394-3.711-2.135-3.247-.476l0,0,2.426,2.99c1.52.156,2.232,1.341,5.728,5.3l-.064-.01Zm4.886,2.938c-.4-.77-1.513-1.937-2.279-2.02l.621,1.014.093.15a4.3,4.3,0,0,1,.369.359l.258.283C2684.111,3106.727,2684.184,3106.362,2684.805,3107Zm4.582,1.117c-.331-.71-1.126-1.73-.988-2.139-4.134-4.179-6.689-7.892-5.667-8.007a9.626,9.626,0,0,1-2.426-2.865c.093-.774,1.608,1.361,1.7.586-2.684-3.817-5.188-7.426-9-11.915-2.634-1.625-.621,2.117-3.506-.353.3,1.444,1.492,2.3,3.32,5.03-.141-.468-.509-1.78.918.274.725,1.056-.3.013-.459.323,1.144.615,1.852,2.958,2.938,3.431l.163-.119c-.254-.937-1.677-2.792-2.187-3.954,1.214.77,2.14,3.388,2.462,1.93,2.816,3.315,3.551,5.662,1.175,3.814l-.154.115c.33.468.418.756.169.789C2680.188,3099.02,2685.063,3104.2,2689.387,3108.115Zm-13.46-25.419c-.22.7.9,2.628,2.442,4.678a44.027,44.027,0,0,0,4.9,5.485h.006l.444-.335c-.761-.882-1.614-1.99-1.714-1.487-1.146-1.549-.289-1.6-.332-2.328-.254-.269-.51-.534-.776-.809-.309-.315-.621-.645-.941-.992l.025.131C2678.577,3085.523,2677.378,3084.432,2675.927,3082.7Zm12.464,15.549.108.023a22.6,22.6,0,0,0-2.7-3.087l.156.279a4.417,4.417,0,0,1-1.4-.788h0c-.61.183,1.765,1.339,1.3,1.8.644.743.7.312,1.265.888.63,1.129-.949-.476,1.329,1.785C2688.609,3098.971,2688.018,3098.276,2688.391,3098.245Zm-20.886-28.476-.642.384c1.126,1.78,2.217,3.349,2.523,2.763C2668.09,3071.278,2668.546,3071.2,2667.5,3069.769Zm-3.3,1.1c-.924-.968-2.178-3.62-3.058-3.384a25.829,25.829,0,0,1,2.574,3.671Zm-2.25,1.333c-.126.212.614,1.227,1.08,1.976l.8-.483C2662.764,3071.935,2662.85,3073.473,2661.959,3072.205Zm-6.7-10.842c.5.853.635.438,1.089,1.113l.017.078c.038.023.074.041.112.066.283.169.542.33.648.268.007,0,.024.006.033,0l.066-.035c-1.175-1.9-.676-2.509-2.092-3.955.139-.2.538-.134.134-.905,1.094.806,2.972,4.243,3.981,4.6l.048-.011a1.3,1.3,0,0,1,.373-.04l-.088-.125.495-.27c-3.656-4.764-6.1-11.75-9.684-18.213l-.04-.117a1.5,1.5,0,0,1-.616-.369,1.368,1.368,0,0,0-.492-.318c-.105-.009-.307-.281-.449-.61s-.171-.583-.066-.577a1.672,1.672,0,0,1,.654.409,2.212,2.212,0,0,0,.374.269l-.008-.012.517-.224a53.072,53.072,0,0,1-3.727-7.631,20.242,20.242,0,0,0-3.5-3.553c.506,1.181.973,2.3,1.337,3.263.068.193.118,1.21-.055.819.307.713,2.154,3.062,2.43,4.4.1.089.2.18.294.271l-.077-.166c-.333-.793-.061-.84.212-.888-.092.31.973,3.324.009,1.763-.068-.062-.136-.126-.208-.19s-.16-.139-.249-.22l.2.352-.077-.081c.617,1.161,1.125,2.223,1.534,3.22.023.055.036.1.055.153l.079.052a15.877,15.877,0,0,0,1.474,3.4c.562.564.949.337,1.692,1.666l0,.017a1.512,1.512,0,0,0,.3.1l.076.015.123.155a6.571,6.571,0,0,1,.739,1.114c.178.323.264.636.192.7l-.01,0c-.08.04-.273-.167-.443-.476a2.486,2.486,0,0,0-.212-.338,2.749,2.749,0,0,1-.423-.171l.17.267c0,1.456-1.287.613-2.547.385C2651.946,3054.66,2653.221,3057.89,2655.254,3061.363Zm-5.933-8.757c-1.015-.741,1.088,3.2,1.061,1.987Zm-1.367-5.961c.31-.41-1.287-3.106-1.411-4.064-.042-.124-.077-.236-.125-.374a11.228,11.228,0,0,1-.387-1.287c-1.714-4.116-4.2-8.139-4.379-10.429a4.479,4.479,0,0,0-.764-.2c-.6-1.007-1.267-2.294-1.962-3.646.114.319.235.65.382,1.015a9.092,9.092,0,0,0,1.92,3.256c-.522.438.874,4.062,1.859,4.858C2643.313,3038.923,2645.518,3040.923,2647.954,3046.645Zm-44.869-181.6c.208-.649.411-1.3.614-1.966l-.087-.023c-.15.472-.286.948-.4,1.425C2603.172,2864.661,2603.131,2864.847,2603.085,2865.048Zm186.5,349.7a4.459,4.459,0,0,0-2.939-.358l.018.77a.771.771,0,0,1-.027.147,5.118,5.118,0,0,1,1.174,1.093,3.539,3.539,0,0,1,1.567,1.034C2789.706,3217.106,2788.152,3215.554,2789.583,3214.752Zm-112.191-79.921a4.2,4.2,0,0,1,1.178-.445,21.86,21.86,0,0,0-2.434-1.742,8.2,8.2,0,0,0-1.5-1.876C2674.665,3131.787,2675.324,3133.037,2677.393,3134.831Zm18.97-28.8c2.107,2.011,5.7,6.271,6.168,5.386.761.785.161.779-.008,1.022,7.354,6.435,12.868,12.464,18.473,16.153-1.062-1.76-6.491-5.679-8.649-8.152h.008c-.191-.175-.382-.354-.568-.533l0,.047c-3.123-2.921-8.352-7.237-8.189-8.526-.239-.293-.481-.6-.735-.941a1.823,1.823,0,0,1-.105-.167l-.083-.049-1.285-1.263q-.215-.167-.456-.347c-.852-.314-2.394-1.794-3.878-3.24l-.119-.161c-.115-.016-.25-.043-.392-.074-.1-.021-.2-.043-.287-.06l.009.008C2696.117,3105.323,2696.73,3105.986,2696.363,3106.033Zm28.045,25.451c.164.566,1.972,2.125,4.035,3.814,1.055.867,2.176,1.763,3.167,2.591a1.268,1.268,0,0,0-.028-1.2c-.756-.559-1.23-1.038-.827-1.175l.15.026c-.355-.286-.688-.585-1-.871a12.211,12.211,0,0,0-1.355-1.128C2728.12,3135.1,2725.935,3131.563,2724.408,3131.484Zm3.342-5.078c3.254,2.278,5.2,3.651,6.917,4.894s3.2,2.335,5.617,3.94l.007.006a.968.968,0,0,1,.271-.061l-.168-.094c-.818-.808-3.044-3.127-1.032-2.258.092.546,2.941,2.086,3.781,2.878a16.064,16.064,0,0,0-3.318-3.006.776.776,0,0,1-.282-1.082.854.854,0,0,1,1.135-.18,20.936,20.936,0,0,1,4.376,4.082,13.845,13.845,0,0,0,4.848,4,8.645,8.645,0,0,0,1.693-.4l.378-.161.376.215c1.755.989,3.461,2.115,5.125,3.186a46.53,46.53,0,0,0,6.478,3.664.765.765,0,0,1,.443.993.613.613,0,0,1-.054.1.8.8,0,0,1-1,.246,48.446,48.446,0,0,1-6.725-3.8c-1.532-.987-3.1-2.02-4.681-2.932-.23.072-.508.141-.837.211.161.211.317.426.491.628a8.24,8.24,0,0,1,2.524,1.824c.5.316,1.023.631,1.59.956.752.427,1.524.878,2.3,1.367l-.015-.05c2.177,1.164,6.1,2.711,6.426,3.514h-.039a16.474,16.474,0,0,0,1.794.765,1.9,1.9,0,0,1,.726.45c.033.043.042.076.031.1-.028.05-.168.04-.374-.036a20.031,20.031,0,0,1-2.362-1.016l.04.056c-.334-.06-.709-.16-1.066-.244.792.4,1.57.807,2.344,1.217.821-.764,2.513,1.4,3.641,1.621l.431.1a4.522,4.522,0,0,0-1.582-2.094.611.611,0,0,1-.176-.892.714.714,0,0,1,.961-.1,5.823,5.823,0,0,1,1.891,2.215,13.176,13.176,0,0,1,3.935,3.063,11.237,11.237,0,0,1,2.8,1.61c-.825-.337-.5-.009-.165.322a13.862,13.862,0,0,0-1.951-.822,4.614,4.614,0,0,1,.362,1.068c1.507.876,3.278,1.807,5.192,2.707a81.759,81.759,0,0,0,12.393,4.693c.6.427,1.234.854,1.88,1.281.057-.147.479-.046.721-.067.013-.008.011-.021.033-.025l.1-.025a3.213,3.213,0,0,1,.728-.117l-.608-.187c-2.815-1.376-4.805-2.137-5.946-3.024a22.8,22.8,0,0,1,5.036,1.338c.122.485,2.474,1.409,4.539,2.191s3.832,1.436,2.734,1.528l.015.014a2.957,2.957,0,0,1,.465.133c.268.1.523.2.773.3a4.359,4.359,0,0,1,.57.149c.352.12.68.241,1,.362l-.011-.027c1.975.489,1.3.793,2.718,1.236-1.549-.937.4-.794,3.067.175.847.684-2.045.1-.225.688,1.818-.326,9.245,1.644,12.3,2.963l-.106.042a10.783,10.783,0,0,1,2.361.639c.149.073.218.139.2.186s-.081.069-.212.076a2.64,2.64,0,0,1-1.027-.231,4.209,4.209,0,0,0-.64-.163c-.28.171-1.817-.317-1.541.142q2.9.72,5.806,1.375l.178-.7c2,1.039,5.481,1.214,4.971,1.618,2.555.362,5.044.637,6.04.244,2.165,1.033,5.739,1,10.248,1.825.533.59-1.111.313-.878.784a6.01,6.01,0,0,1,2.168.666,109.582,109.582,0,0,1,11.636,1.414,5.471,5.471,0,0,1,.991.06c.641.1,1.3.178,1.962.262.878.106,1.778.218,2.677.353,1.639-.132,4.855.194,6.572.033a30.321,30.321,0,0,0,6.524.505c2.839,0,5.616-.215,6.185-.6a20.2,20.2,0,0,0,3.753,1.046c1.946-.168,1.944-.767,2.965-1.144,6.251.509,14.046.276,19.575.566.609-.61,5.212-.736,6.658-1.292,1.048-.021.207.674,1.6.523,3.391-.935,8.6-.854,11.2-1.522l.139-.014a1.127,1.127,0,0,0,.24-.521c-.011-.136.438-.326,1.008-.422.55-.094,1-.067,1.031.064v.008a.968.968,0,0,1-.183.488c3.068.487,5.781-1.593,7.953-2.323l.042.019a6.634,6.634,0,0,1,.735-.412,1.982,1.982,0,0,0,.754-.486l.1-.193.687-.121a19.087,19.087,0,0,0,3.454-1.035,25.345,25.345,0,0,1,5.518-1.558c.275-.042.453-.023.471.042.007.021,0,.048-.038.081a2.023,2.023,0,0,1-.885.328,19.17,19.17,0,0,0-4.34,1.249,24.68,24.68,0,0,1-3.722,1.158,4.993,4.993,0,0,1-.907.54,5.859,5.859,0,0,0-.549.3l.191-.058c.629.495,3.48-.264,3.154.21a64.308,64.308,0,0,1,8.573-2.324,36.574,36.574,0,0,0,8.708-2.886c1.573.013,6.214-1.321,8.047-2.029-.108.046,2.794-1.264,3.417-1.577,1.061-.522,1.635-1.279,3.1-1.719l.255-.268-.112.031c-.067-.168.49-.41.565-.6-.988.779-5.177,1.891-6.191,2.622.215-.781,1.176-1.639,1.451-2.431,3.889-1.667,4.4-1.093,7.79-2.53l.578,1.333a19.256,19.256,0,0,1-2.02.979l-.136.038c-.012.018,0,.026-.02.046l-.429.459.094.223c3.885-1.311,4.864-2.471,7.585-3.209l-.028.045a8.446,8.446,0,0,0,1.65-1.414,10.5,10.5,0,0,1,1.362-1.267.363.363,0,0,0-.1-.1l-.2.016c-.207.013-.183-.1.057-.258a2.1,2.1,0,0,1,.82-.313l.277-.021.116.008a.6.6,0,0,1,.225.208l.048.058-.179.132a8.862,8.862,0,0,0-1.346,1.241,9.68,9.68,0,0,1-1.627,1.449c3.507-.953,6.206-3.025,8.348-4.322-1.788.476.7-1.4-1.6.136.138-.562.94-1.255,1.527-1.907,1.653.063,4.7-1.874,6.617-1.78a30.966,30.966,0,0,0,4.59-3.538l-.174.036c-1.46.727-1.7.673-1.3.285q-.4.091-.788.193l-1.8.925a.65.65,0,0,1-.2-.349c-.089.03-.182.052-.271.083-.477.164-.962.342-1.439.508a30.005,30.005,0,0,1-9.769,4.507,11.535,11.535,0,0,1,2.592-1.959c-6.074,2.191-12.261,4.459-18.614,6.575a198.077,198.077,0,0,1-28.837,7.581,223.634,223.634,0,0,1-28.728,3q-1.489.132-3.033.278c-.089.035-.173.056-.27.1a3.42,3.42,0,0,1-1.407.19c-.433-.042-.506-.193-.16-.335l.143-.059c-1.6.037-3.2.055-4.79.063a18.553,18.553,0,0,1-6.971.759c-.86-.03-1.681-.046-2.5-.023-2,1.058-6.812.479-11.209.535l.029-.027c-.324.02-.649.036-.992.048-.621.023-1.178-.082-1.246-.239s.374-.293.994-.315c.3-.011.61-.03.916-.049a29.539,29.539,0,0,0,4.94-1.071q-3.043-.156-6.034-.365a3.862,3.862,0,0,0,1.369.4l-2.881.022c-.346.762-3.532.794-4.345,1.417-2.657-.09-6.422,0-7.959-.414-.731-.7,2.454-.245,2.92-.607.764-.6-2.857-2.023.055-1.439l.04.031a3.181,3.181,0,0,1,.414-.279c-3-.3-5.94-.627-8.845-.971a27.391,27.391,0,0,1-3-.315l-.256-.042c-.006,0,0,.008-.01.011-.31.163-.2.371-.034.57h.253c2.4,1.26-3.154,1.112-.17,1.976-3.069-.051-4.613.414-8.723-.1l-.255-.028c.1.073.16.143.152.208-.017.129-.2.25-.385.367a1.812,1.812,0,0,0-.278.208s-.013,0-.016,0c10.687.711,21.363,2.069,31.815,2.771a140.717,140.717,0,0,0,26.951-.369.936.936,0,0,1,1.071.746.536.536,0,0,1,.009.081.9.9,0,0,1-.828.909,142.577,142.577,0,0,1-27.336.381c-10.556-.707-21.349-2.086-32.079-2.789a.93.93,0,0,1-.909-.941.884.884,0,0,1,.752-.782c-.195-.04-.309-.1-.266-.152a1.806,1.806,0,0,1,.3-.221c.2-.125.378-.242.329-.354-2.131-.565-3.231-.958-5.928-1.785l-.894-.178.022.028c-4.546.151-10.7-1.7-17.088-2.85-.37-1.219,4.5.107,6.622.034a1.18,1.18,0,0,1,.212-.16l-.17-.017c-1.546-.859-.4-.143-2.82-.543-.411-.433-3.931-.756-4.128-1.22,3.034.5.781-.486,3.616-.161a1.023,1.023,0,0,1,.245-.394l.049-.047.2.009c.156.009.285.021.425.03q-3.446-.826-6.846-1.783c-3.833-.713.2,1.275-.488,1.724-1.58.094-3.055-.879-4.225-.815-.047-.29.42-.58-.5-.868-.7.16-2.06-.047-1.679.7.878.528,2.347,1.043,1.8,1.57-2.165-.407-5.944-1.764-7.024-1.643.83.266.371.308-.106.345h0c1.286.558,3.667,1.113,2.533,1.62q-2.45-.646-4.893-1.344l.219-.689h0l-2.078-.6c-.3-.42,1.159-.764-.354-1.237-1.961-.485-3.664-.834-5.612-1.36-.007-.009-.024-.021-.032-.03a.769.769,0,0,1,.009.1c-.9.3-6.286-.577-5.631-2.549l-.88-.3-.1.255c-.023.057-.229.036-.455-.045s-.394-.193-.373-.25l.106-.271a5.71,5.71,0,0,0-.733-.386.974.974,0,0,1,.232,1.11l-.051.091a1.137,1.137,0,0,1-1.512.343,100.984,100.984,0,0,0-12.667-5.4c-4.7-1.8-9.542-3.812-13.684-6.989a.982.982,0,0,1-.188-1.448,1.157,1.157,0,0,1,1.551-.11c3.894,2.984,8.355,4.845,13.094,6.663.862.329,1.732.658,2.6.989-.907-.374-2-.981-.876-.573.9.327,2.462,1.136,1.3.733,2.347.893,4.714,1.827,7.041,2.92,2.04-.088,7.059,2.279,11.241,3.048-1.009-.7.138-.2.244-.683,3.493.95,7.172,2.7,12.912,4.009.685-.218,1.952-.125,1.726-.851.607.207,1.2.363,1.775.5q-3.248-1.021-6.467-2.122c-.244-.083-.483-.176-.726-.261a.176.176,0,0,1,.066.124v.016c-.047.141-.519.132-1.085-.02-.754-.21-1.508-.436-2.265-.671-1-.307-1.951-.6-2.881-.853l-.226.652c-5.734-2.5-10.191-1.583-15.611-4.879l.191.033c-.246-.145-.507-.3-.79-.487l.009.032a12.854,12.854,0,0,1-2.563-1.212l.023-.05a9.907,9.907,0,0,1-2.123-.882c-.213-.117-.293-.224-.175-.244a1.225,1.225,0,0,1,.587.172,6.981,6.981,0,0,0,1.283.553,3.852,3.852,0,0,1,1.208.381c.678-.341.225-.708,1.022-.57l.357.178a4.774,4.774,0,0,0-.4-.5l-.86-.378c-.266-.114-.426-.25-.375-.312s.325-.006.588.107l1.175.521.2.09.086.087a4.294,4.294,0,0,1,.5.593l.121-.033c1.791.722.985,1.131.833,1.615l.233.146c1.4.455,4.812,1.48,3.274.658-.2.081-.635-.009-1.4-.321-.821-.66,3.042.125,5.052.672.874,1.207,6.81,2.285,7.3,2.625l-.053.025c1.242.334,2.463.708,3.647,1.073.17.052.341.1.511.15-9.122-3.255-18.149-6.9-27.513-10.658-.039.015-.076.03-.118.042l.645.277.013.16a12.743,12.743,0,0,1,2.45,1c.24.134.362.256.333.321-.009.021-.033.036-.075.042a1.765,1.765,0,0,1-.883-.261,7.045,7.045,0,0,0-.686-.323c.029.164.426.383.481.548-3.06-1.623-6.352-2.589-7.568-3.727l.168.039-.89-.54c-.994-.236-2.929-1.276-3.806-1.442l-.072-.043a.381.381,0,0,1-.011.267.552.552,0,0,1-.282.216l.108.042c-.361.394-1.475.152-3.51-.92.026-.454.485-.523,1.615-.009l.209.126c.257-.083.465-.2.292-.5,0-.007,0-.009,0-.016l-.237-.092c.1-.2-.87-.631-1.044-.895-.381-.182-.769-.36-1.114-.511a1.411,1.411,0,0,0-1.047.227,1.718,1.718,0,0,1-.914.282l-.129,0-.223-.081a7.2,7.2,0,0,1-3.137-1.906c-.173-.2-.019-.261.335-.146a2.58,2.58,0,0,1,.949.57,2.418,2.418,0,0,0,1.124.729,1.462,1.462,0,0,0,.623-.232,2.033,2.033,0,0,1,1.631-.213l.174.034.23.1c.5.219,1.086.49,1.658.764.158-.323,2.259,1.053,3.207,1.4l.321.176-.443-.379c-.24-.2-.18-.317.136-.255a2.611,2.611,0,0,1,.993.482l.442.375-.022-.115,1.263.6.027.139c.176.021.331.036.46.04a3.155,3.155,0,0,1,1.317.509c.273.18.4.335.356.419-.022.042-.085.062-.191.061-.127,0-.271-.018-.417-.031l.185.074-.052.1.61.368-.006-.017c1.84,1.039,1.313.151,1.6-.069.468.2,1.113.433,1.792.686a23.093,23.093,0,0,1-.879-4.2c-2.087-.915-4.01-1.818-5.517-2.66a2.511,2.511,0,0,1-.955-.083c.762.553,1.194,1.183.736,2.026-1.611-1.009-4.206-1.835-3.968-3.282-2.422-1.138-5.281-2.706-7.255-3.557-.91.718.979,1.883,3.785,3.073-.317,1.348-5.6-1.979-6.524-1.252.313.185.585.357.547.45.3.19.59.364.875.518.385.209.663.459.616.566l0,0c-.059.093-.407.011-.786-.195-.693-.371-1.309-.77-1.983-1.212-.013-.008-.019-.015-.031-.023l-.129.019a84.724,84.724,0,0,1-11.715-7.1c-4.293-2.917-8.462-5.911-11.4-7.223.639.494.434.666.223.833-4.149-2.839-10.114-6.875-12.453-10.021l-.035-.087a1.276,1.276,0,0,1-.116-.067c-.17-.125-.559-.39-1.041-.68-.2.062-.489-.006-1.191-.671l-.234-.236a.762.762,0,0,1-.373-.152,9.346,9.346,0,0,1-2.2-2.006c-2.11-1.806-4.116-3.626-4.75-4.74,1.378,1.091,1.341.394,1.034-.054-2.094-1.091-3.357-2.924-6.145-5.562-.763-.59-.6.416-1.527-.467-1.362-2.965-6.054-5.191-8.126-8.469l.07.006c-.542-.548-1.026-1.089-1.452-1.6l0,.062-.459-.514.1.009c-.027-.035-.049-.068-.073-.1a18.257,18.257,0,0,1-2.19-2.462l-.009-.015-.1-.02c.259.855.984,2.587-.06,2.074a6.56,6.56,0,0,0,.765.947c1.068.314,2.952,3.295,1.451.552,1.758,2.5,5.367,5.728,7.8,8.811l0,.029a33.464,33.464,0,0,1,3.423,3.514,18.7,18.7,0,0,0,2.776,2.733c1.3.7,3.568,2.893,4.777,3.379-.013.315.464.881.023.977.432.412.815.747,1.264,1.135l.293.253c.61-.406,4.228,3.471,4.638,4.178l2.458,2.009c.465.373.758.771.655.886s-.565-.087-1.032-.463l-2.452-2c-.647-.294-1.306-.6-1.975-.932-.116-.7-1.832-2.168-2.648-3.227l-.3-.254c-.582-.5-1.147-1-1.837-1.679l0,.041q-1.826-1.63-3.615-3.292l.057-.054a24.031,24.031,0,0,1-3.884-3.724c-.737-.839-1.432-1.63-2.125-2.277-1.694-.115-6.407-5.689-9.277-8.353-.951-1.425,1.042.132.11-.984l0-.143a10.655,10.655,0,0,1-2.483-3.076l-.12-.026c-1.237-.789-3.076-4.275-4.317-4.55-.593-1.525-1.225-2.415-3.162-4.548.01-.583-.941-1.907-1.074-2.613-2.284-3.419-3.361-3.924-4.965-5.8-1.767-2.314-3.983-6.232-5-6.635,1.622.228-1.371-3.132-2.487-4.918,1.1-.025-.621-1.708-1.28-2.433.475-.042.528-.478-.053-1.533a102.606,102.606,0,0,1-6.445-12.194,60.519,60.519,0,0,0-5.925-10.621,3.508,3.508,0,0,1-.482-.056c.2.633-.224.894,0,1.714,1.2,2.752,1.985,2.984,3.172,5.348.492,2.98,2.524,4.779,3.939,7.226,1.82,3.132,2.87,6.186,5.114,9.71-1.188.071-3.524-4.021-5.472-7.235a12.972,12.972,0,0,1-3.771-5.08c-.416-.813.009-.7-.289-1.389a90.939,90.939,0,0,0-5.285-8.768c-.922-1.431-1.859-2.915-2.783-4.566a13.04,13.04,0,0,0-2.052-.261c1.705,3,3.932,6.225,5.391,10.394l-.138-.069.291.465c.441.695.9,1.412,1.346,2.216l.1.172.054.167c.023.073.037.124.059.191l.005-.086c.2.076.459.431.8,1.167l-.027-.006.433.737c.976,1.183,2.046,2.724,3.028,3.8-.308.11-.178.682.159,1.474-.828-.078-1.987-1.431-3.467-4.528l.038.014-.065-.11-.31-.528c-.117.01-.242-.021-.473-.542l-.041-.23c-.62-.413-1.018-.507-1.273-.288a4.684,4.684,0,0,1,.593,2.4c-.937-1.767-1.358-.464-2.347-.468,1.227,1.856.873,1.827,2.3,4.4.75.532,1.688,1.812,2.364,1.992,1.464,3.47,2.533,3.81,4.762,7.881.192-.926,1.95.25,2.087,1.266-1.39-1.7,1.457,2.683,2.088,3.673-.376.425-1.275-.8-1.948-1.327.254.9,1.7,2.882,1.973,3.773.213.057.325-.175.709.4l0,0h0l0,0,.641-.382a14.8,14.8,0,0,0,2.125,2.842c.41,1.16-.945.1-1.749-.588v0h0l0,0c-.111.2.382.928.921,1.694.2.126.369.227.482.284a1.223,1.223,0,0,1,.4.469c.077.149.1.253.057.278-.015.008-.034.008-.064-.008a6.99,6.99,0,0,1-.747-.457l.235.285c1.762,2.737,2.428,2.379,3.647,3.562l-.007.109.207.085.1.04.143.159a26.544,26.544,0,0,1,2.927,4.309l0-.138c1.413,2.652,2.057,2.2,3.785,4.272-.8-.077.928,1.731.135,1.655-1.205-1.476-3.294-2.741-2.683-1.581,2,2.177,3.858,3.881,4.479,2.908.081,1.1,3.757,4.528,3.2,3.819.677.838,1.356,2.027,2.043,2.919a148.631,148.631,0,0,0,13.607,15.011c4.924,4.84,9.845,9.228,13.391,12.683-1.017.905-5.078-4.309-6.39-3.75,2.114,2.38,7.086,6.146,8.7,6.581.045-.3-.913-1.081-1.467-1.671-.221-.2-.448-.392-.669-.591a.44.44,0,0,1-.051-.644.5.5,0,0,1,.68.009q1.756,1.581,3.544,3.129a.447.447,0,0,1,.124.536c1.36,1.1,2.42,2.047,2.507,2.569.247.16.513.325.851.519a1.122,1.122,0,0,1,.383.337c.011.027.013.046,0,.058-.021.027-.1.009-.208-.054-.62-.351-1.041-.629-1.44-.9l.309.283C2728.236,3125.667,2727.966,3126,2727.75,3126.407Zm-47.434-51.874c1.1,1.112,2.62,3.2,3.213,2.984a22.553,22.553,0,0,0-2.1-3.139l-.163-.066.247.286C2681.42,3075.364,2680.52,3074.053,2680.316,3074.533Zm-21.713-37.321c.506-.63,1.484,1.315,2.12,1.377.161,1.416.173.955.7,1.4.31-.4.818-.328,1.634.219-.013-.041-.024-.08-.036-.12-.356-.63-.737-1.216-1.128-1.833l-.229-.363.095.249-.343.15c-1.883-4.1-4.927-8.27-5.517-11.26a1.8,1.8,0,0,0-1.24,1.355C2655.914,3031.351,2657.222,3034.3,2658.6,3037.212Zm453.419,80.46c-4.707,2.018-9.529,6.206-14.875,10.946a190.147,190.147,0,0,1-14.724,12.242c.179.623,1.141.171,2.114-.312-2.066,3.007-5.743,5.739-8.366,8.125-.94.413-1.3.1-2.554.894l-1.016.812c-.507.55-.977.99-1.5,1.478l-.479.445c-.518.576-.2.526.156.556,2.984-2.121,5.975-4.244,8.968-6.416C3091.012,3138.238,3102.31,3129.3,3112.022,3117.672Zm-420.409,20.119-1.926-1.863-1.592,1.476C2689.259,3137.467,2690.644,3139.553,2691.613,3137.792Zm11.363-15.326a50.228,50.228,0,0,0,7.148,5.779c.2-.165,0-.529-.2-.9,1.75,1.283,1.331,1.469,2.8,2.586l-.093-.008c.373.267.747.536,1.1.8l.2.141c.215-.391.505-.675,1.775.317-.99-1.375-3.15-1.775-5.069-3.474-.485-.477-2.188-2.529-.779-1.388-1.493-1.462-3.388-2.193-6.388-5.409-.192.244-.745-.048-1.462-.6a5.7,5.7,0,0,1,.044.691c0,.047,0,.1.005.144l.062.031A3.167,3.167,0,0,1,2702.976,3122.465Zm94.662,43.2-.173.043-.1.03c-.013,0-.036,0-.052,0a12.579,12.579,0,0,1,2.007.9c-.667-.009-1.1.129-1.029.6,2.182.859,3.031.59,3.467,1.379,3.138.919,1.742-.561,2.568-.652-.122-.043-.233-.089-.36-.131-.043-.014-.077-.032-.117-.047a8.856,8.856,0,0,1-1.046-.131,1.715,1.715,0,0,1-.7-.281c-.124-.11-.009-.157.25-.11s.471.08.681.1l-.165-.063A35.321,35.321,0,0,1,2797.638,3165.669Zm1.506,5.69a235.376,235.376,0,0,0,23.631,8.159,2.023,2.023,0,0,0,.147-.19,1.848,1.848,0,0,1,.224-.267l-.154-.026.092-.348c-5.827-1.608-8.6-3.079-16.567-5.482-.614-.391-2.648-.892-1.988-1.2-2.483-.68-4.039-.828-4.686-.4C2799.586,3171.519,2799.373,3171.442,2799.144,3171.359Zm35.864,6.223c-1.107-.917-1.295.145-2.289-.09C2833.828,3178.418,2834.016,3177.351,2835.008,3177.582Zm5.031,5.692c2.5.038,3.5-.559,7-.165-2.371-.7-3.854-.57-7.484-1.384C2839.114,3182.277,2839.663,3182.771,2840.04,3183.273Zm20.837-.683c.319.671,4.893.706,7.494.968,1.286-.278-.049-.234.053-.722a62.45,62.45,0,0,0,9.2,1.066c3.856.2,7.66.093,8.862-.462a7.9,7.9,0,0,1-4.51-.4c-5.867-.283-12.953.242-14.9-1.155-.721-.112-1.489-.209-2.309-.309-.585-.072-1.163-.154-1.735-.238C2860.489,3181.143,2862.866,3182.605,2860.877,3182.59Zm41.542,2.2c-.01.174-.918.195-1.506.264,2.782.4,4.712-.807,6.841-.262-.305-.284.562-.383,1.482-.48-.209-.211-1.52-.058-1.515.12a26.461,26.461,0,0,0-6.082.041C2901.792,3184.605,2902.409,3184.6,2902.419,3184.785Zm-8.737,3.756a7.061,7.061,0,0,1-2.919.19l-.34-.028c-.366.08-.815.139-1.27.2l-.068,1.119c.588.072,1.2.117,1.79.182,1.065,0,2.169-.009,3.355-.021,2.745.016,1.878-.69,4.62-.7a70.492,70.492,0,0,0,8.574-.251,57.948,57.948,0,0,0,9.125-1.271c-3.477-.112-8.067.166-12.681.369C2900.309,3188.484,2896.742,3188.595,2893.682,3188.541Zm31.3-1.629c-.839-.288-3.486.715-6.128.785C2920.866,3188.331,2925.482,3187.554,2924.984,3186.912Zm16.344-8.129c.5.282,1.239.134,2.262-.29l-.085-.352A11.708,11.708,0,0,1,2941.328,3178.782Zm13.841-1c.07.165.944-.1,1.523-.212.181.112-.238.242-.683.369,1.835-.234,5.991-1.013,5.829-1.793-.632.147-.669.267-.68.385-1.686.371.8-.521-.9-.312C2958.919,3176.846,2957.275,3176.912,2955.169,3177.783Zm11.426-4.187c1.011-.584,1.992-1.546.31-1.426-3.326,1.7-6.28,1.532-9.258,3.269C2958.417,3176.118,2964.116,3173.994,2966.595,3173.6Zm-85.509-2.012c-.553-.05-1.108-.1-1.657-.15a2.782,2.782,0,0,0-.552.394l.438-.024c.157.144.6.229,1.436.217C2880.18,3171.783,2880.421,3171.65,2881.086,3171.585Zm-20.383-1.15a19.931,19.931,0,0,1,3.607-.025l.114.019a.39.39,0,0,1,.03-.556h-.094a.754.754,0,0,1-.331-.184c-2.817-.361-5.6-.731-8.316-1.108a5.256,5.256,0,0,1-1.883-.265c-1.156-.162-2.319-.325-3.457-.487-.212-.031-.42-.069-.632-.1a.471.471,0,0,0-.231.061c1.055.925,5.3.429,5.558,1.473-2.063.15-5.5-.306-5.873.485.519.114,1.322.2,1.383.361l.754.149-.024-.029c5.915.947,3.182-1.495,8.094-1.016C2861.154,3169.739,2857.793,3169.989,2860.7,3170.435Zm-14.908-2.12.172-.089a10.1,10.1,0,0,1-2.434-.41l.14.15a20.875,20.875,0,0,1-2.771.04,1.515,1.515,0,0,0-.139.126.232.232,0,0,1-.089.038l.033.011a32.777,32.777,0,0,0,5.639,1.135c-.1-.262-2.885-.8.062-.356C2846.408,3168.729,2845.543,3168.57,2845.794,3168.315Zm-8.314-2.208c.919.174,1-.317.115-.53l.06-.016c-.141-.013-.307-.026-.513-.04a1.02,1.02,0,0,0-.173.307C2837.33,3165.91,2837.622,3166,2837.48,3166.106Zm-90.432-42.215c-.154.019-.211.151-.44.081-.117-.06-.24-.123-.349-.181a1.279,1.279,0,0,0,.349.181c1.37.71,3.39,1.573,5.712,2.657-2.175-2.109-3.809-4.553-6.753-4.96l-.12-.245-.562.357-.318-.219a35.039,35.039,0,0,1-4.772-4.182c-1.247-1.245-2.517-2.519-3.909-3.683a18.533,18.533,0,0,0-4.341-2.341c.138,1.444,2.551,2.879,4.118,4.684-1.825-.573-6.337-4.125-6.579-5.044-3.252-2.5-2.325-.8-4.174-1.6l-.107-.078a5.5,5.5,0,0,0,.653.7c.622.154.918-.068,1.693,1.04l.033.178c.691.393,1.321.805,1.716,1.089l-.03-.074a40.24,40.24,0,0,1,4.438,3.348c-1.024-1.451,2.942,1.927,2.9.865C2740.577,3119.593,2745.014,3123.516,2747.048,3123.892ZM2724.1,3108.8l-.033-.024,0,.011Zm-11.323-13.5c.144-.108.694.5,1.1.845.035-.319-1.095-1.316-1.789-2.068-.57,0,.72,1.106.55,1.345C2713.206,3095.948,2713.038,3095.564,2712.773,3095.3Zm-3.669-4.056c1.4.651-2.045-3.445-4.49-6-.267.354-1.041-.321-1.78-.947a.7.7,0,0,0-.073.549c.206.227.4.449.627.685a29.023,29.023,0,0,1,2.177,2.5l0-.049a34.361,34.361,0,0,0,3.395,3.392C2708.933,3091.039,2708.738,3090.478,2709.1,3091.242Zm-3.144-.923c2.493,1.826-1.222-2.005-1.279-2.5l.169.123a20.4,20.4,0,0,0-1.688-1.929c-.2-.214-.41-.451-.617-.675l-.1-.018a1.235,1.235,0,0,1-.441-.263c-.462-.157-.733.085-.6.586a12.45,12.45,0,0,0,1.276,1.4l-.1-.176c.183-.132,1.269,1.076,1.358,1.457.172.2.349.391.53.586.236-.029.745.471.84.161A2.627,2.627,0,0,1,2705.959,3090.319Zm2.114,41.253c0,.205-.354-.067-.718-.365-.021-.01-.03-.013-.049-.023q.136.176.267.36a10.785,10.785,0,0,0,1.13.685,3.227,3.227,0,0,1,.557-.3,18.162,18.162,0,0,1-2.12-1.632A3.222,3.222,0,0,0,2708.073,3131.572ZM2917.8,3205.41c0-.676.862-.609-.125-1.073-2.9-.036-4.625-.472-7.484-.575-.281.634-3.057.9-4.258,1.382.558.009,1.121.013,1.689.009,3.572-.019,7.235-.206,9.83.526l-.072.2c1.091.064,2.237.046,3.35.017a40.214,40.214,0,0,1,4.847.064l.642-.1C2924.929,3205.2,2920.664,3205.588,2917.8,3205.41Zm19.035-1.534c1.716-.365,5.029-.806,7.858-1.388s5.173-1.288,4.964-2.023c-5.1.893-5.384.167-10.684,1.388C2940.216,3202.208,2939.424,3203.184,2936.837,3203.875Zm-29.865,9.658a4.429,4.429,0,0,0-.417-.322,195.041,195.041,0,0,1-20.073.141h-.007c1.453.116,2.961.183,4.506.209,5.234.1,10.767-.2,15.41.086C2906.583,3213.61,2906.774,3213.571,2906.972,3213.533Zm15.423-.959a19.711,19.711,0,0,1,2.218-.143c-.32-.44,1.085-.727,3.3-.977-.975-.377-4.017-.029-7.305.389l-.048.007A19.015,19.015,0,0,0,2922.394,3212.574Zm-20.769-10.118c-1.269-.086-2.745-.36-3.129.309A13.433,13.433,0,0,0,2901.625,3202.456Zm-96.037-15.855a12.1,12.1,0,0,0-3.467-.263,36.538,36.538,0,0,0,4.474,1.438c-.149-.419.33-.489,1.7-.071C2807.434,3187.345,2806.478,3186.974,2805.588,3186.6Zm-41.546-24.361a5.805,5.805,0,0,1-1.7-.977,2.353,2.353,0,0,0,.621,1.591C2763.652,3162.914,2764.091,3162.752,2764.042,3162.241Zm201.631,44.47c.008.031-.034.073-.1.116,1.558-.437,2.885-.878,3.874-1.133-1.546.247-3.013.428-4.313.5l-.026.009.034.112a1.221,1.221,0,0,0,.131.081,1.073,1.073,0,0,1,.39.3Zm-7.773-7.425a10.888,10.888,0,0,0,4.66-1.759c-.447-.286-4.277.971-4.8,1.237Zm-.114,10.473a9.066,9.066,0,0,0,3.335-1.961c1.266-.469,2.473-.286,3.057-.619a.146.146,0,0,1-.091-.034.871.871,0,0,0-.341-.266.9.9,0,0,1-.219-.141c-.03-.029,0-.07.06-.115l-.128.02c-4.081,1.073-8.032,2.149-12.629,3.243Q2954.254,3210,2957.786,3209.758Zm13.532-3.768c.868-.394,1.8-.775,2.768-1.152-1.148.234-2.3.455-3.427.651C2971.093,3205.486,2971.344,3205.615,2971.318,3205.99Zm-226.484-85.938c-.989-.711-2-1.445-3.012-2.177a29.726,29.726,0,0,0,2.81,2.423A2.083,2.083,0,0,1,2744.834,3120.052Zm-40.809-82.422c-.383-1.044-2.354-3.746-3.532-6.186-.566-.14-1.578-.54-1.344.666,1.4,2.271,1.97,2.453,3.114,5.114C2702.943,3037.757,2703.619,3038.286,2704.025,3037.631ZM2695.3,3024.7c.855.869.228-1.27.678-1.6-.7-2.072-1.858-3.33-2.33-5.435l.063.027c-.146-.262-.281-.517-.391-.735-.16-.311-.222-.641-.142-.733s.271.081.429.394c.066.133.127.249.189.366.226-.016.464.046.791.938.661.036-.971-2.515-.666-2.9-.521-1.007-.867-.159-1.448-1.958-.351.137.4,1.566-.245,1.354-.567.209-1.024-2.222-1.655-3.467a3.174,3.174,0,0,1-.21.354,9.825,9.825,0,0,1-2.26-2.576c.055.135.1.269.157.4C2690.447,3014.544,2692.914,3019.888,2695.3,3024.7Zm374.151,127.2-.234.212-.238-.279a32.352,32.352,0,0,0-3.56,2.89l.01.007a.6.6,0,0,1,.113.407.89.89,0,0,1-.851.752,2.979,2.979,0,0,0-.483.065c-.453.482-.881.95-1.4,1.463a29.975,29.975,0,0,0,5.573-3.726l.547-.36A2.615,2.615,0,0,1,3069.447,3151.9Zm-28.319,22.006a.845.845,0,0,0,.295-.319l.143-.076a.578.578,0,0,1-.419-.622l-.131.09-.2-.306c-1.986,1.207-2.439,1.885-2.365,2.39Q3039.8,3174.518,3041.128,3173.91Zm-314.31-104.166c-.513.313-.7,1.348-2.219-.535a33.922,33.922,0,0,0,4.975,6.046,20.017,20.017,0,0,0,5.467,4.128c-1.7-2.205-4.416-5.005-7.291-8.066.084-.377.968.356.428-.354,1.532.984,4.643,4,4.692,3.089-3.572-3.73-5.736-5.142-8.889-8.945h0l-.276-.037a.851.851,0,0,1-.313-.163c-.053.2-.261.4-.831.536A17.282,17.282,0,0,1,2726.818,3069.744Zm13.2,14.107-.4.389a69.518,69.518,0,0,0,12.068,9.336C2748.048,3091.014,2744.9,3086.79,2740.013,3083.852Zm139.027,8.166a53.66,53.66,0,0,1-8.087-.511l-7.572-1.123a3.335,3.335,0,0,0-.853.948c1.94.229,3.887.419,5.906.691a.852.852,0,0,0,.048.945,20.662,20.662,0,0,0,2.717.124,14.48,14.48,0,0,1,5.316.619.717.717,0,0,1,.341.827l-.025.107c-.117.407-.452.653-.742.543a9.738,9.738,0,0,0-3.111-.543c3.3.925,5.9,1.975,10.6,2.271,1.241.525,3.511.667,4.921,1.1a.82.82,0,0,0,.014.271,3.515,3.515,0,0,0,2.716-1.338c-.14-2-2.974-.973-5.035-1.166-2.385-.215-5.156-.637-7.109-.9C2877.35,3094.425,2880.764,3092.474,2879.04,3092.017Zm15.692,6.569h0c.712-.181,1.042-.948,2.1-.6.377,1.93-.916,1.355-1.855,1.3-.013,0-.021.017-.035.016l-.254-.013h0c.646,1.68,2.1,2.419,3.831,2.814,4.055-.368,6.145.413,8.31.734a61.535,61.535,0,0,1,11.019-.837c4.247-.02,8.524.115,12.234.016l-.01.108c1.495-.346,3-.783,4.449-1.235,4.789-1.483,9.547-3.169,14.9-2.653l-.011-.019c1.5-1.482,4.133-2.654,6.946-3.548a41.606,41.606,0,0,1,8.106-1.717c.239-1.82,2.208-2.473,4.631-2.942s5.309-.756,7.262-1.677l.026.109a5.278,5.278,0,0,1,3.04-1.354c.342-.069.68-.147,1-.242l-.184-.234c.421-1.407,3.632-2.812,1.463-4.323-1.9.4-3.66.929-5.522,1.459q-.905.264-1.835.509l.181.226c-2.625,2.479-7.447,3.629-11.343,5.166l-.049-.071a.587.587,0,0,1-.1.1c-3.276,1.914-7.229,2.815-11.036,3.546-2.458.473-4.995.907-7.376,1.536l.111.231c-3.085.478-6.586,1.656-8.739-.033-.249-.023-.5-.039-.745-.05a5.747,5.747,0,0,1-2.3-.461q-1.722.279-3.445.53l.012-.17a5.313,5.313,0,0,1-.675.313c-.288.106-.612-.134-.722-.536a.77.77,0,0,1,.317-.928c.117-.044.221-.089.325-.136l-.305-1.953c-3.095.9-4.205,2.491-6.565-.58-.232.014-.464.033-.7.045a14.948,14.948,0,0,0-3.6.468c-.013.408-.013.8-.006,1.2v.05c.288.019.551.083.514.656l-.021.366.354-.6a.455.455,0,0,1,.79-.067.981.981,0,0,1,.218.541.969.969,0,0,1-.113.57l-.359.6.26-.1.05.535a7.461,7.461,0,0,0,4.161-.575c.264-.112.563.094.673.465a.945.945,0,0,1,.031.155.685.685,0,0,1-.313.731,8.2,8.2,0,0,1-5.012.555l.1.283c-1.425.026-4.556.87-7.212,1.129s-4.781-.025-4.086-1.985l.036-.206a7.861,7.861,0,0,0-1.487.526c.212.749.485.985-.056,1.814-1.886.3-3.814-.777-5.749-1.518s-3.892-1.139-6.062.515C2894.258,3097.858,2894.666,3098.012,2894.732,3098.586Zm9.375-5.23c.182.764.937.728,1.362,1.157a8.918,8.918,0,0,1,1.612-.648l-.007-.447A5.964,5.964,0,0,0,2904.107,3093.356Zm11.955-1.98c-1.214-.288-2.453.508-3.372,1.5.657,1.75,2.857,1.929,3.361-.028l0-.229C2916.043,3092.232,2916.046,3091.815,2916.062,3091.376Zm25.653-.049c-1.069-.684-1.837-2.04-3.429-1.442-1.118,2.723-3.656-.018-5.007,3.072l-.023.016a5.058,5.058,0,0,0,1.878.34c.282.011.568.042.853.071l-.078-.167C2937.22,3092.023,2939.561,3091.792,2941.715,3091.327Zm3.052-4.1c.072.677-.323.959.005,1.86a11.449,11.449,0,0,0,4.734-1.835c-.148-.333-.3-.666-.441-1l-.01-.023A9.86,9.86,0,0,0,2944.767,3087.227Zm9.968-3.661a9.863,9.863,0,0,0-3.879,1.719c.147.33.3.663.454,1,1.833.4,3.548-.5,5.172-1.394l.508-.279c-.356-.909-.992-.833-1.474-1.286C2955.255,3083.4,2955,3083.487,2954.735,3083.565Zm-3.26,7.629a35.157,35.157,0,0,0,10.179-3.157c-.7-1.76-2.2-.692-3.25-1.178l-.8.434c-1.871,1.034-4.042,2.144-6.549,1.449a.806.806,0,0,1-.481-.042,12.205,12.205,0,0,1-5.444,2.2l-.447.1.163.337c-.843.163-.9.667-.329,1.289C2946.8,3092.05,2949.17,3091.635,2951.475,3091.194Zm33.313-14.7c-2.4-.68-4.92.525-7.332,1.983s-4.691,3.179-6.319,3.588c.654,1.964,2.121-.039,3.035.69l1.456-.4c1.944-.558,3.781-1.109,5.8-1.516l-.17-.193C2982.221,3079.151,2984.915,3078.5,2984.787,3076.489Zm-42.772,29.26q3.053-.574,6.032-1.23a2.047,2.047,0,0,1,.974-.621c.2.083.269.205.248.345a163.65,163.65,0,0,0,17.284-4.909,114.741,114.741,0,0,0,24.613-11.708c-3.155-1.373-6.926,1.11-10.317,1.115-.259.066-.523.124-.789.177a4.283,4.283,0,0,0-2.488,1.055l.194.077c-.129.061-.262.129-.393.193,0,.008-.011.013-.016.021a.571.571,0,0,1-.571.268c-4.136,2.047-8.581,4.646-13.065,6.652-4.823,2.168-9.672,3.624-13.735,3.077l0-.188c-5.316-.631-10.134,1.1-14.984,2.6-1.513.466-3.085.927-4.653,1.283l.065.154a74.874,74.874,0,0,1-15.035,3.439,2.7,2.7,0,0,0,1.3,1.08c3.305-.815,6.738-1.887,9.275-2.09.414.352-.352,1.414.852,1.3,2.883-.973,7.59-1.857,11.277-2.982-.237,1.242,2.345.06,3.339-.029C2941.594,3105,2941.746,3105.383,2942.015,3105.75Zm50.124-30.827a19.689,19.689,0,0,0,6.786,1.1c2.736.042,5.521-.341,6.978-1.189,2.177-1.264,3.04-4.992,5.131-7.078,1.232-1.225,2.938-2.088,4.135-3.135.841-.729,3.617-1.185,2.266-3.662-.872.19-2.125,1.578-3.576,2.9s-3.094,2.576-4.6,2.528c-1.171.642-.209-1.375-1.8-2.235C3002.375,3067.951,2996.5,3071.2,2992.139,3074.922Zm-26.679,75.369c1.626,1.259,5.294-1.143,7.7-1.4C2972.082,3146.769,2966.6,3149.092,2965.459,3150.291Zm63.827-127.568c-3.6-1.508-4.539,3.3-6.85,5.051C3025.463,3028.075,3027.157,3024.706,3029.286,3022.723Zm22.149-103.7c3.527-.038,3-3.3,1.625-4.134C3050.124,2915.323,3051.384,2917.4,3051.435,2919.026Zm-1.946-10.957c2.716-.975.8-6.073-2.645-4.667.014.483.366,1.071-.293,1.352a2.459,2.459,0,0,0,.255.926C3048.08,2906.116,3049.208,2906.713,3049.489,2908.069Zm10.793,94.176a40.362,40.362,0,0,0-7.951,15.012c.962.686,1.35.192,2.187.61C3058.814,3013.792,3059.27,3007.976,3060.282,3002.245Zm-302.716,125.614a7.221,7.221,0,0,0,2.839,1.677C2759.481,3128.985,2758.524,3128.42,2757.566,3127.859Zm294.383,37.355c-4.632,2.177-5.378,4.39-8.566,6.538a.412.412,0,0,0,.214.308A33.677,33.677,0,0,0,3051.949,3165.214ZM2678.838,3007.65c-.033.355-.068.7-.324.76a22.876,22.876,0,0,1,1.312,3.48C2680.48,3011.169,2679.684,3009.357,2678.838,3007.65Zm37.339,48.356c1.9,3.065,4.716,6.507,6.789,7.616v0l.038,0-.521-.547C2721.427,3061.95,2719.482,3059.893,2716.177,3056.006Zm.292,4.937c1.441,1.566,2.859,3.007,4.278,4.368-.512-1.4-2.183-3.125-3.671-4.8C2717.4,3061.514,2716.848,3060.6,2716.469,3060.943Zm355.075,89.823-.124.085c-.114-.054-.24-.085-.777.379l-.193.018a3.485,3.485,0,0,0-.5,1.048l.368-.34C3070.821,3151.5,3071.167,3151.171,3071.544,3150.766Zm-407.2-120.441.026.013-.011-.012Zm10.093,15.54c-.036-.036-.312-.593-.329-.595C2673.017,3045.176,2677.027,3048.682,2674.434,3045.865Zm6.615-42.138c.348-.026.136-.82.522-.8-.443-.806-.862-.652-1.292-.872A8.208,8.208,0,0,1,2681.05,3003.726Zm1.375-4.2c-.827.98,1.338,4.846.663,5.458.531,1.254.957-.291,1.482.784,2.343,5.637,4.891,11.17,7.188,15.9.292.673.556,1.311.169,1.238.752,1.445,1.188.658,1.9,1.79-.9-4.09-3.109-7.136-5.617-12.58-2.159-4.7-3.421-9.271-4.684-11.045a51.112,51.112,0,0,0-3.275-9.065,11.348,11.348,0,0,1-1.522-.968c0,.048.011.093.015.141A39.892,39.892,0,0,0,2682.424,2999.527Zm3.781,66.247c2.389,3.392,5.78,6.784,7.075,8.958a2.915,2.915,0,0,0,.481.138l.086.019-.141-.18-2.07-2.712c-.476-1.222.522.132.771-.525-3.49-1.9-6.181-8.287-10.125-12.879C2681.282,3059.236,2684.438,3063.314,2686.205,3065.774Zm7.2,9.51.265.285c2.1,2.052,4.459,5.083,7.477,7.966.009,0,.009-.007.017,0l.2.041c-.058-.462,0-.76.292-.9l-.162-.164c-.812-2.886-6.023-7.214-5.4-4.471-.843-1.06-.132-.973-1.4-2.358-.176-.028-.277.124-.544-.124A3,3,0,0,1,2693.4,3075.283Zm18.571-31.328c-.863-.829-1.986-2.709-2.867-3.75l-.652.371C2709.778,3042.387,2711.39,3044.988,2711.975,3043.955Zm3.712,54.236c1.191,1.679,5.05,4.625,5.639,4.064-2.22-2.081-3.427-2.575-5.368-4.316C2716.143,3098.343,2716.309,3098.739,2715.686,3098.191Zm131.053,69.064c-.828-.141-1.652-.3-2.476-.451-.437.217-.435.567-.007.96a7.113,7.113,0,0,0,.862.165C2845.169,3167.492,2846.272,3167.51,2846.74,3167.255Zm55.007,5.857c1.034-.022,2.017-.007,2.888.019a14.483,14.483,0,0,0,3.668-.177q-3.3-.013-6.562-.1A.358.358,0,0,1,2901.747,3173.112Zm81.729-6.143c-.562.174-1.389.53-1.48.373-1.105.42-.308.6-1.089.977a1.624,1.624,0,0,0,.012.191l0,.033C2981.791,3168.64,2983.556,3167.267,2983.476,3166.969Zm-4.74,1.961-.134.06c.138-.827-2.07.851-4.343,1.34l.323.847a21.8,21.8,0,0,0,4.145-1.845l0-.05A1.173,1.173,0,0,1,2978.737,3168.93Zm-.244,1.833c-.595.333-1.2.664-1.432.509-2.012.627-.432.871-1.9,1.432C2977.719,3172.169,2978.854,3171.477,2978.492,3170.763Zm-92.4,16.531c-1.038-.18-5.683-.063-7.242-.18l-.014.36-.231-.022a.521.521,0,0,0,.093.061Q2882.423,3187.486,2886.089,3187.294Zm-15.615-1.08c-1.409-.536-2.684,0-4.559-.484.216.128,1.843.833-.061.718.221.264,1.9.292,3.046.392C2868.714,3186.415,2869.128,3186.18,2870.474,3186.214Zm1.282,1.209c.921.029,1.842.056,2.76.071l-2.58-.116A1.834,1.834,0,0,0,2871.756,3187.423Zm-44.3-7.357a12.885,12.885,0,0,0-2.133-.319c-.044.054-.082.108-.121.164a1.8,1.8,0,0,1-.183.237c.517.142,1.034.279,1.553.418C2827.2,3180.534,2827.721,3180.371,2827.454,3180.066Zm-32.718-11.973-3.526-1.311c-.09.489-1.526.043-1.845.373q2.043.929,4.111,1.825C2793.58,3168.473,2794.958,3168.818,2794.736,3168.093Zm-8.649-2.734c-.9-.435-1.265-.482-1.472-.416.449.215.9.426,1.355.639A.708.708,0,0,0,2786.087,3165.359Zm-29.046-19.663c-.5-.305-1.03-.614-1.594-.936-.18-.1-.365-.214-.546-.32.662.48,1.347.946,2.062,1.384Zm-13.564-9.608c-.056-.065-.115-.129-.172-.193a.576.576,0,0,1,.055.081l-.055.008Zm-1.973.066c.211.481,2.6,1.74,3.547,2.458.114-.324-.05-.739-.75-1.344q-.344-.223-.721-.453a5.354,5.354,0,0,1-1.957-.7A.548.548,0,0,0,2741.5,3136.154Zm3.657,6.437a8.172,8.172,0,0,0-1.262-.647c.212.208.423.414.646.623l.053.048.074-.2C2744.844,3142.465,2745,3142.536,2745.162,3142.592Zm6.734,4.8c.737.781,1.474,1.607,2.25,2.456a45.05,45.05,0,0,0,4.423,4.324,6.532,6.532,0,0,1,1.472.48,1.661,1.661,0,0,1,.687.476.068.068,0,0,1,.007.061c-.033.057-.216.031-.467-.079a3.586,3.586,0,0,0-.9-.282,25.709,25.709,0,0,0,7.4,4.023c1.458.33,2.478-.636,3.752-.836-2.973-1.487-5.741-2.852-7.452-3.657-1.254-.8-1.235-1.275-2.275-2.029C2757.9,3151.252,2754.357,3148.682,2751.9,3147.388Zm-34.3-13.752c-1.165-.716-1.259-.038-3.348-1.975l.1.008-.615-.445c-.207-.154-.4-.289-.6-.435.867,1.176-.962-.049-.091,1.075C2716.822,3135.5,2720.077,3136.261,2717.591,3133.635Zm318.494,46.587a41.217,41.217,0,0,0,9.616-3.9c1.869-.963,3.785-1.966,5.7-2.828l-.1-.072c-.125-.568.2-1.062,1.134-1.458-.767-1.4-2.172-1.017-3.706-.3-.107.068-.2.123-.319.2C3044.8,3174.576,3040.652,3177.4,3036.085,3180.223Zm-312.318-47.03c-2.7-2.017-5.337-4.069-7.486-6.046-.2.593,1.753,2.225,3.811,3.847,1.28,1.014,2.6,2.023,3.448,2.816A1.052,1.052,0,0,1,2723.767,3133.193Zm-20.4-5.993q.509.5.967.928a2.2,2.2,0,0,1,.464.154A9.461,9.461,0,0,0,2703.365,3127.2Zm330.031,60.212c1.846-1.056,3.71-2.15,5.615-3.335l.458-.219c-.712.091-.445-.294.106-.729a2.185,2.185,0,0,1,.673-.356c.176-.042.174.042-.019.195-.233.188-.263.273-.2.31,3.1-1.893,5.177-3.214,7.427-4.667,1.546-1.009,3.195-2.09,5.289-3.511-.1.047-.2.1-.31.142l-.029-.18c-1.912.843-3.8,1.836-5.8,2.868-4.531,2.328-9.314,4.62-14.362,4.612-3.492,2.056-7.185,4.1-11.046,6.1-2.525,1.31-5.124,2.595-7.772,3.854a27.606,27.606,0,0,1-4.774,2.835,89.557,89.557,0,0,1-9.02,3.277c-4.2,1.736-8.47,3.391-12.749,4.942a8.606,8.606,0,0,1-1.084.671c6.433-1.884,12.857-4.022,19.217-6.086,8.056-2.609,16.63-5.681,25.071-9.276Q3031.744,3188.147,3033.4,3187.412Zm26.4-13.833c1.685-1.464,2.779-2.673,1.824-2.514l-.719.49.027-.091a49.125,49.125,0,0,1-5.958,3.771c-.059.03-.1.046-.154.071a19.344,19.344,0,0,0-5.058,3.967c1.551-.867,3.084-1.745,4.576-2.644C3055.984,3175.643,3058.027,3174.705,3059.794,3173.579Zm1.454-3.891c-1.434.869-2.915,2.059-4.622,3.214-.021.291-.439.738-.4,1a40.072,40.072,0,0,0,3.632-2.318A4.6,4.6,0,0,1,3061.247,3169.688Zm62.2-66.607c1.541-2.272,3.228-4.633,5.028-6.936-.727.055-.6-.654-.323-1.5a48.228,48.228,0,0,1-6.229,6.547,4.124,4.124,0,0,0-1.01,2.332c.566.2,1.151.856,1.684.253C3122.864,3103.56,3123.155,3103.323,3123.448,3103.081Zm6.783-6.032c.105-.189.212-.377.3-.573l-.629-.4c-.659,1.368-2.12,2.787-3.434,4.464C3127.694,3099.465,3128.978,3098.294,3130.231,3097.049Zm34.047-255.464c-1.466-2.727-.449-6.025-3.167-7.469-3.514.925.406,5.279,1.1,8.231Zm-516.94,201.271c-.188-.417-.407-.863-.652-1.333l-.14.057-.142-.385a7.212,7.212,0,0,0,.354,1.241c.068.194.132.39.2.585l.056-.024Zm11,10.283c-1.363-2.639-2.353-3.967-2.921-3.443C2656.692,3051.762,2657.368,3053.538,2658.338,3053.138Zm2.216,5.428c-.223,1.382,3.511,5.305,0,0Zm-3.553,6.111c1.032,1.479,2.016,2.79,3.328,5.007.841.371-1.809-3.866.009-1.733.328-.389-.908-.959-1.575-2.539-.123.017-.252.01-.551-.549l0,0a1.69,1.69,0,0,1-.878-.342l-.021-.012Zm4.014,1.185.326-.184-.714-1.161a1.468,1.468,0,0,0-.189.041l-.032.008A2.817,2.817,0,0,0,2661.015,3065.861Zm5.054,1.356-.786-1.234-.647.371.786,1.24Zm29.562,40.45c1.847,2.091,2.708,2.447,3.167,2.155-1.222-1.487-3.47-2.458-2.237-1.992C2695.789,3106.261,2695.408,3106.981,2695.631,3107.668Zm3.56,11.038c-.5.026-1.355-1.712-1.506-.672.6.607,1.055.635,1.105,1.053.816.7.925.318,1.512.662l.161.17-.006-.229a4.238,4.238,0,0,0-.065-.877l0-.006-.115-.091.132-.128c-.824-.781-2.752-1.667-2.883-2.5C2695.384,3114.574,2698.563,3117.925,2699.191,3118.706Zm.708,13.281a15.465,15.465,0,0,1,1.389,1.2l.732.053a9.169,9.169,0,0,0-1.913-1.226Zm-24.55-3.268c1.829,1.751,3.79,3.547,5.741,5.394a4.311,4.311,0,0,0,3.09-1.635,21.672,21.672,0,0,0-4.4-5.647c-1.035,1.079-2.142.954-3.3-.358-.066-.039-.131-.077-.206-.123A4.948,4.948,0,0,1,2675.35,3128.719Zm113.144,88.646.006.011a2.624,2.624,0,0,0,.661.131C2788.945,3217.466,2788.721,3217.418,2788.494,3217.365Zm-2.131,15.716a13.589,13.589,0,0,0,1.892.683l.476-1.215-1.887-.675ZM3094.2,3148.9a2.269,2.269,0,0,1-.233-.464c-.811.892-1.328,1.52-1.274,1.629a3.676,3.676,0,0,0-.125.792A13.958,13.958,0,0,0,3094.2,3148.9Zm10.276-7.874-.095-.026c-.195-.6-.493-.917-.869-1.01a.235.235,0,0,1-.026.022l-.125.028a1.453,1.453,0,0,0-.276.519l-.052.151a3.249,3.249,0,0,1-.879,1c-.4.323-.656.385-.569.153l.045-.124a2.916,2.916,0,0,1,.438-.847l-.094.079a9.239,9.239,0,0,0,.561-.836,5.442,5.442,0,0,0-1.107.674c-.716.67-1.683,1.634-2.719,2.688-1.2,1.22-2.5,2.551-3.582,3.694a3.336,3.336,0,0,0,.167.7A58.575,58.575,0,0,0,3104.477,3141.028ZM2895.454,2631.9a64.315,64.315,0,0,0,14.908,1.271c5.367-.041,10.834-.375,15.408-.708-4.988-.465-11.03-2.495-16.676-3.42C2903.465,2628.105,2898.276,2628.269,2895.454,2631.9Zm-38.135,2.492c.887.975,4.173,1.083,7.68.854a45.434,45.434,0,0,0,9.026-1.376c-1.364-1.257-4.668-1.918-8.077-1.845S2859.038,2632.9,2857.319,2634.394Zm-90.942,35.827c1.946,1.27,5.823-1.245,9.188-2.58l-.58-1.211c-.34.1-.676.207-1.013.315-.284.088-.571.173-.856.26l.108.106Q2769.786,2668.627,2766.377,2670.221Zm-107.823,426.916q1.119,1.445,2.248,2.857a36.458,36.458,0,0,0,3.437,2.26c-1.72-2.015-3.778-4.441-5.6-6.773-2.41-3.083-4.4-5.989-4.822-7.378,2.638,3.933,3.462,3.081,2.638,1.133,2.241,3.307,2.9,2.809,4.864,5.315-.732.159-1.889-.654-2.821-.957,2.256,3.595,5.424,6.767,8.4,9.919a12.017,12.017,0,0,0,2,.573c.806,2.926,2.19,2.522,4.358,5.426,1.872,1.422,3.786.824,5.66,2.222,4.752,6.6,10.824,13.081,13.76,19.032a16.537,16.537,0,0,0,8.139,2.381c-.141-.136-.282-.275-.426-.4l.051.053a12.278,12.278,0,0,1-4.2-2.5c1.961-.293-2.066-5.177-6.034-8.442,1.554,1.12-.222-1.493-1.552-2.831-2.062-1.391-4.266-4.543-7.882-7.657.346-.626,1.378-.025,2.2.188-1.455-1.807-1.708-2.276-1.683-2.645-1.038-1.141-1.062-.407-2.369-2.073.356-1.75,3.381.243,4.942,2.955.864.052,4.42,2.87,3.523,1.045-1.279-1.137-1.351-.159-2.814-1.644a5.608,5.608,0,0,0-1.105-2.011l-.041-.045a3.891,3.891,0,0,0-1.9-.882l-.216-.019-.437-.418c-.331-.314-.711-.7-1.116-1.129l-.283-.292c-.363-.042-.989-.6-1.079-.118l-.062-.085c.048.2.029.329-.052.395-.136.1-.414.049-.75-.121l-.126-.063-.182-.182a22,22,0,0,1-2.061-2.5l-.381-.512,0,.012c-.8-.925-.772-.174-1.79-1.56.541-.465-3.485-4.472-2.667-4.757l.008.006-.008-.011v.005a18.169,18.169,0,0,1-3.633-5.914c1.758,1.313,2.964,1.319,4,.955-2.084-2.952-3.2-3.738-5.135-6.572a.476.476,0,0,0-.126.16c.513.812-.035.719-.237.925.678.861,1.017.872,1.666,1.646-.709.028.042,1.278-.017,1.851-2.133-2.379-2.475.155-5.57-3.546-.068.013-.134.031-.2.051l-.121.038c-.162.046-.595-.362-.961-.9s-.522-1.013-.371-1.066l.116-.037a1.461,1.461,0,0,1,.375-.057l-.1-.122.631-.4c-1.136-1.02-1.125-1.581-2.182-3.175-.252.017-.379.387-.908-.349l.011-.22c-.453-.472-.814-.7-1.075-.665,1.639,2.953-.306,1.847-1.556.659-1.248-3.009-1.385-3.059-4.271-7.377.757.3-.328-2.491,1.144-.641.559,1.657,2.02,2.942,2.558,4.758.3.033.962,1.079,1.441,1.6q.375-.1.991.408c-1.326-2.04-1.675-4.03-4.01-7.312.127-.213.531-.148.087-.928a17.894,17.894,0,0,1-3.516-5.929c1.222,1.6,2.374,2.866,2.863,1.94,2.019,3.054,1.924,2.048,3.655,4.934.182,2.092,1.228,3.494.173,3.415,2.2,2.255,4.325,3.251,7.083,8.208.158-.1.545.388.756.425l.079.13a.892.892,0,0,1,.233-.342c.074-.251-.247-.841-.558-1.434-2.861-2.91-5.2-8.131-7.6-10.495-.159-1.236-1.254-3.491-3.762-6.593,1.49.539-2.785-6.4-3.048-6.94-.847-.129-.654.892-.447,1.912-.873-1.343-3.18-5.014-3.52-6.54-.067-.128-.134-.251-.221-.406l-.39-.716c-.167-.323-.241-.626-.168-.679.08-.025.268.167.434.49l.327.6c.2.36.42.779.628,1.24l.032-.173c.686.3.575-.163,1.9,1.613-.864-1.516.1-.976-.54-2.248a28.159,28.159,0,0,0-3.388-5.088l-.085-.222c-.439-.114-.893-.6-1.35-1.451l-.188-.379-.172-.592c-.127-.429-.053-.611.167-.4a2.887,2.887,0,0,1,.577,1c.021.017.065.027.092.044l-.019-.033c1.07-.409-.9-4.314-2.173-5.627a8.709,8.709,0,0,0-.8-3.725,61.922,61.922,0,0,1-3.37-6.758c-.354-1.231.087-1.342-.1-2.351a43.753,43.753,0,0,1-2.813-6.9,1.612,1.612,0,0,0-1.728-.127c.076.386.178.77.276,1.153.857,1.984,1.6,4.773,2.841,6.37-.209.064-.227.4-.28.69.729,1.741,1.5,3.609,2.241,5.671a23.181,23.181,0,0,1,2,3.427c-.191,1.458.828,4.45.891,6.165-1.59-3.587-2.328-2.443-3.821-5.844a10.109,10.109,0,0,1-.482-3.048c-2.028-.216.249.839-1.757,3.344-3.194-3.449-4.005-10.018-7.726-14.4-3.084.226-5.429-1.312-7.545-3.39a2.8,2.8,0,0,0,.3,1.245c1.655,4.141,3.614,9.392,5.641,14.242a102.876,102.876,0,0,0,5.546,11.682c.161.17.321.331.483.492l.022.022-.209-.371c.284-.832.077-.758,1.023.427.549.023-1.136-2.835-.287-2.431.292.538.523.769.673.569,2.4,4.366.916,4.358,2.844,6.461-1.2-.071.487,2.266.021,2.576-.374.582-1.4-1.7-1.91-1.739-1.286-2.314-1.1-2.825-2.091-4.837-.151-.15-.308-.312-.469-.483l.178.319c.2.727-.659.618-.029,2.594,1.256,2.607,3.1,6.469,5.161,10.36s4.319,7.811,6.2,10.613c.785.627.781-2.115,3.113,1.921.757,2.36-2.245-.7-.806,2.265,1.841,2.81,1.9,3.442,3.214,5.134.108.044.222.1.326.137s.233.1.35.146l-.158-.219c1.4,1.146.635-2.2,2.442-.637.107.023.216.05.32.07l-.073-.1c.44-.532-1.548-.926-1.289-1.988.369.5.633.692.751.474-1.83-2.016-1.275-3.2-.137-2.64a30.126,30.126,0,0,0,5.177,7.863c.8,1.585.544,2.363,2.086,3.324-.8.038.612,1.548,1.671,3.606a18.926,18.926,0,0,1-3.7-3.25c-.492-1.084.116-1.171-1.168-2.991-.111.856-1.52-1.71-2.153-2.251-.1-.016-.212-.041-.32-.064l.067.087-.16.1c2.044,2.339.472,1.22,2.51,4.024-1.14.095-2.675-.762-4.874-3.53l-.059-.177c-.11-.045-.221-.094-.332-.136s-.241-.1-.36-.15C2650.193,3085.833,2654.252,3091.615,2658.554,3097.137Zm2.822,16.4a33.387,33.387,0,0,1-3.728-3.607,37.3,37.3,0,0,0-3.533,2.382,42.673,42.673,0,0,1,2.68,6.789c2.813,3.416,5.929,6.809,9.153,10.15a6.11,6.11,0,0,0-.644-1.123c4.069-.186,1.311-3.524,2.617-5.831a34.4,34.4,0,0,1-3.718-4.663l.042.008c-.256-.268-.512-.541-.779-.828-.48-.52-.807-1.073-.734-1.229s.521.142,1,.66c.166.182.339.358.507.537,1.036.8,2.056,1.563,3.187,2.5a18.008,18.008,0,0,0,1.3,2.129,4.612,4.612,0,0,1,1.038-.56h-.242a1.785,1.785,0,0,1-.724-.593c-.269-.324-.382-.586-.237-.565l.168,0a1.391,1.391,0,0,1,.907.25l.146.094.177.174c.059.058.134.134.2.2-2.355-3.316-6.333-4.124-10.717-10.73a1.994,1.994,0,0,0-.724-.061C2660.082,3111.256,2661.448,3112.923,2661.377,3113.54Zm111.891,112.329c-.325.142-.642.289-.968.443l-.651.3a.539.539,0,0,1-.11.026l.054.087c1.337.687,3.532,1.17,3.432,2.165C2777.979,3229.237,2774.965,3226.492,2773.268,3225.869Zm9.6-10.659c-.6-.356-.955-.672-.906-.88.45.144.884.284,1.306.422.419-1.663.433-.738.433-.738h0l-.007-.557a21.534,21.534,0,0,1-5.3-1.591C2777.763,3213.5,2780.554,3214.313,2782.868,3215.21Zm103.217,42.939c1.292-1.039.706-1.392-2.156-1.368l-.082,1.29A6.805,6.805,0,0,0,2886.085,3258.149Zm50.367-20.6-.151-1.4c-1.57-.047-1.586.818-2.813.968l.136,1.405C2935.208,3238.571,2935.224,3237.7,2936.452,3237.545Zm2.732-1.693c1.025,3.145,5.747-1.2,0,0Zm36.317-5.16c-3.568-.591-7.17.146-10.594,1.123s-6.655,2.2-9.34,2.614c2.159,1.046,5.583.577,8.376.221s4.976-.586,4.741,1.062C2970.881,3233.058,2975.854,3234.893,2975.5,3230.693Zm230.642-326.961a254.51,254.51,0,0,0-38.286-106.286c-2.875-4.52-6.03-10.642-10.923-12.033q1.938,2.932,3.8,5.905l-.248.051.9,1.323c3.526,5.212,7,10.742,9.139,16.574l.139.382-.078.367a4.45,4.45,0,0,1-1.1,1.92,7.822,7.822,0,0,0-.707.992c6.1,13.3,11.7,25.5,16.509,38.076,4.906,12.891,8.948,26.159,10.894,40.871l-.263.151c1.342,1.159,1.609,3.019,1.8,4.545.066.514.127,1.021.226,1.5a.846.846,0,0,1-.563,1.047.836.836,0,0,1-.94-.71c-.114-.528-.187-1.1-.259-1.676a8.289,8.289,0,0,0-.6-2.615c-1.061,2.788-.154,7.288.36,11.6.294.01,1.767-.509,1.371-1.007.949,1.191.487,5.361.19,9.985-.282,4.636-.411,9.718,1.6,13.056-.1,2.2-1.311-1.135-2.961.088a17.945,17.945,0,0,1-3.553,10.146c-.181,12.064-.583,25.15-3.392,35.724l-.177-.08a48.282,48.282,0,0,1-1.782,10.8l.195-.024a106.008,106.008,0,0,1-4.972,23.915,185.335,185.335,0,0,1-8.636,21.612c-.9,1.944-1.886,3.9-2.9,5.844a36.832,36.832,0,0,1-1.632,5.637c.452.525.878,1.107-.048,3.623-1.57,2.069-2.155,6.234-4.632,10.146-.964-.217-2.216.976-3.656,2.86-.235.892-.475,1.773-.748,2.626-1.008,3.166-2.441,5.954-5.4,7.44l-.12-.135c-.182.54-.385,1.04-.58,1.475a9.051,9.051,0,0,0-.679,1.824,1.049,1.049,0,0,1-.15.353c-.14,2.38,1.185,4.789-.777,8.717l-.085.076a2.963,2.963,0,0,0,2.205-.842.95.95,0,0,1,1.032-.116.794.794,0,0,1,.275.267,1.1,1.1,0,0,1-.367,1.4,5.028,5.028,0,0,1-3.551,1.26c-2.879,3.529-7.637,8.656-11.18,14.819-1.364,2.441-4.887,8.422-3.436,10.184a143.92,143.92,0,0,0,31.67-41.585,1.328,1.328,0,0,1,1.624-.754l.042.017a1.172,1.172,0,0,1,.4,1.626,146.476,146.476,0,0,1-32.622,42.7l.149.05c-5.187,6.129-10.006,11.212-15.232,16.336s-10.883,10.273-18.034,16.263l-.023-.1a58.185,58.185,0,0,1-9.915,7.33,14.591,14.591,0,0,1-1.61,2,.112.112,0,0,0,.013-.007c-.042.046-.088.093-.132.138-.081.082-.157.164-.238.245-.526.545-1.068,1.1-1.645,1.665l.013,0c9.443-4.27,20.057-12,29.74-21.14A235.885,235.885,0,0,0,3147,3103.516c1.664-1.042,3.333-1.962,4.99-3.045,5.477-8.025,11.206-15.839,16.336-23.37a168.518,168.518,0,0,0,12.793-21.285c3.2-6.663,6.909-13.584,10.105-20.537s5.877-13.9,7.092-20.358c1.664-8.755,3.517-17.345,1.4-24.02a86.237,86.237,0,0,0,2.5-12.332,103.154,103.154,0,0,1,1.847-10.5,1.374,1.374,0,0,1-.136-1.04,45.236,45.236,0,0,0,1.152-8.534c.112-1.738.216-3.531.394-5.225a1.166,1.166,0,0,1,1.12-1.123l.058,0a1.18,1.18,0,0,1,.915,1.368c-.172,1.619-.266,3.3-.384,5.084a47.537,47.537,0,0,1-1.206,8.914c.443,1.4-.182,3.794.579,4.879,3.022-4.442,1.461-10.406,1.608-15.816.125-4.59,1.256-8.634,1.381-13.216C3209.874,2930.694,3207.794,2917.164,3206.143,2903.731Zm-23.793,14.318.094-.183a3.419,3.419,0,0,1,.636-.93l-.161-.045c-.58-2.367-.41-5.759-.681-8.658s-.957-5.29-3.1-5.578c.275,3.811.207,9.882.571,15.429.386,5.553,1.23,10.621,3.918,12.565l0,.228a9.332,9.332,0,0,0,.9-.589c1.377-2.609,1.284-6.741.78-11.111-.661.042-.881-.468-1.353-.661-.038.065-.073.134-.111.208l-.124.242a.754.754,0,0,1-1.1.286A.933.933,0,0,1,3182.349,2918.049Zm-4.735,77.049c4.343-.253,5.527-6.108,7.293-10.7.011-.054,0-.106.019-.161a45.573,45.573,0,0,0,1.838-11.126c0-.011.007-.019.007-.029-.654-6.986-.058-13.652.343-20.369.418-7.068.6-14.2-1.248-21.3l-.74.012.107-.385c-.3.225-.581.412-.839.573a173.853,173.853,0,0,1-1.48,31.881C3181.534,2974.347,3179.454,2985.057,3177.614,2995.1Zm29.676,87.046c1.633,2.495,1.976-2.8,3.376-1.7C3211.426,3078.472,3207.887,3080.294,3207.29,3082.143Zm-415.532-29.111c-.574-.336-1.07-.625-1.246-1.208-.1-.329-.508-.4-.909-.175a.985.985,0,0,0-.55,1.016,3.059,3.059,0,0,0,1.629,1.7,6.345,6.345,0,0,1,.748.488.826.826,0,0,0,1.036-.247l.014-.02c.325-.351.376-.8.121-1.007A7.239,7.239,0,0,0,2791.758,3053.033Zm66,25.944a51.221,51.221,0,0,1-9.266-2.319c-.249-.084-.563.139-.71.5l0,.014c-.144.363-.051.729.2.813a52.384,52.384,0,0,0,9.433,2.365c.25.033.522-.211.632-.55l.021-.071C2858.16,3079.348,2858.021,3079.015,2857.759,3078.977Zm-25,91.146.433.075a5.07,5.07,0,0,0,1.708.1.422.422,0,0,0,.354-.515.494.494,0,0,0-.568-.333,4.327,4.327,0,0,1-1.344-.1l-.451-.076a.434.434,0,1,0-.132.853Zm43.624-96.176a7.321,7.321,0,0,1-1.764-.244c-.234-.075-.511.172-.613.55s.009.746.251.823a7.913,7.913,0,0,0,1.917.27,5.25,5.25,0,0,1,2.461.521c.223.128.51-.065.634-.429a.9.9,0,0,0,.04-.159.7.7,0,0,0-.216-.736A5.642,5.642,0,0,0,2876.378,3073.947Zm38.989,26.781a53.866,53.866,0,0,1,6.4-.534,27.925,27.925,0,0,0,8.182-1.3.731.731,0,0,0,.362-.833l-.025-.118c-.115-.412-.452-.657-.749-.548a26.941,26.941,0,0,1-7.894,1.242,53.352,53.352,0,0,0-6.475.545.754.754,0,0,0-.469.871C2914.751,3100.485,2915.051,3100.786,2915.367,3100.728Zm10.4,75.852c9.015-1.34,18.549-2.478,27.714-4.087.785-.136,1.578-.293,2.368-.439l.036.117,1.426-.387c.146-.028.288-.052.434-.08a2.729,2.729,0,0,1-.984.792,14.353,14.353,0,0,0,4.368-1.039c-.457-.075-1.171-.007-1.556-.123q3.338-.68,6.656-1.49a2.565,2.565,0,0,0,1.152-.275c1.4-.352,2.778-.731,4.152-1.122a9.6,9.6,0,0,1-1.716.7c-.884.969,2.448-.693,2.317-.2.814-.327.546-.554.47-.8a.716.716,0,0,0,.519-.876l-.01-.017a.765.765,0,0,0-.956-.459,173.17,173.17,0,0,1-18.945,4.3c-9.144,1.606-18.654,2.743-27.686,4.083a.718.718,0,0,0-.643.811A.764.764,0,0,0,2925.766,3176.581Zm178.306,24.2a1.106,1.106,0,0,0-1.455-.014,359.584,359.584,0,0,1-70.463,35.388,371.022,371.022,0,0,1-66.893,18.015c-.652.115-1.116.561-1.032,1.009s.68.714,1.334.6a372.875,372.875,0,0,0,67.2-18.1,361.391,361.391,0,0,0,70.8-35.546c.552-.359.787-.961.525-1.337Zm-152.2-126.282c-.311-.048-.615-.074-.912-.1l-.127-.012.028-.069c-.688-1.366.193-1.466.856-1.746-1.868-.753-3.09,0-4.332.98s-2.489,2.157-4.257,2.2c.643,1.6-.407,1.686.5,3.519,2.093-2.323,5.1-.769,7.47-2.8l-.087-.16c.086.006.173.018.259.024.273.023.544.038.828.083.387.06.652-.322.588-.85a1.464,1.464,0,0,0-.07-.308A1.1,1.1,0,0,0,2951.867,3074.5Zm32.382-19.013c-.2-.273-.5-.389-.665-.257a70.8,70.8,0,0,1-11.184,6.993c-4.232,2.216-8.765,4.324-13.094,6.7-.189.1-.229.433-.08.739s.423.465.613.358c4.343-2.381,8.9-4.5,13.156-6.727a71.766,71.766,0,0,0,11.322-7.076c.157-.125.139-.429-.04-.693Zm-6.524,12.22a.532.532,0,0,0-.554-.324,15.805,15.805,0,0,0-1.759.783,8.671,8.671,0,0,1-2.6.946c-.2.026-.288.274-.19.551s.341.479.545.448a9.222,9.222,0,0,0,2.763-1,16.2,16.2,0,0,1,1.713-.763c.191-.065.24-.332.109-.6Zm187.593-5.734-.063-.027a1.336,1.336,0,0,0-1.621.771,11.022,11.022,0,0,0-.455,1.155l-.082-.079c-1.606,1.745-3.128,3.945-4.766,5.7-.219.116-.412.213-.58.295-.234.115-.443.215-.665.34a1.034,1.034,0,0,0-.484,1.235.763.763,0,0,0,1.126.33c.185-.1.356-.185.552-.282s.422-.209.676-.343l-.04.16c1.218.518.837,1.627,2.155,2.111,1.181-2.876,4.9-6.842,4.438-9.159.074-.205.151-.41.245-.607A1.168,1.168,0,0,0,3165.318,3061.969Zm50.281,10.23a1,1,0,0,0-1.175.639l-1.763,3.582a.917.917,0,0,0,.233,1.272,1,1,0,0,0,1.187-.63l1.771-3.6A.908.908,0,0,0,3215.6,3072.2Zm9.527-24.964-.083-.019a.92.92,0,0,0-.912.752,97.972,97.972,0,0,1-3.66,10.244c-1.11,2.735-2.294,5.541-3.344,8.295-.176.465-.022.923.326,1.026a.914.914,0,0,0,.975-.661c1.029-2.712,2.209-5.5,3.308-8.214a99.948,99.948,0,0,0,3.735-10.463A.753.753,0,0,0,3225.126,3047.235Zm-28.912-59.565-.022,0a1.211,1.211,0,0,0-1.281,1.066c-.95,5.245-2.259,10.611-3.676,15.755-3.145,11.439-7.156,22.978-10.268,34.5a1.067,1.067,0,0,0,.739,1.407,1.3,1.3,0,0,0,1.389-1.016c3.073-11.411,7.077-22.941,10.22-34.367,1.434-5.2,2.756-10.625,3.72-15.954A1.139,1.139,0,0,0,3196.214,2987.67Zm-243-370.085q5.111.7,10.2,1.564c.6.1,1.145-.145,1.219-.551s-.345-.823-.944-.924q-5.111-.86-10.248-1.572c-.6-.084-1.142.183-1.2.593S2952.617,2617.5,2953.219,2617.585Zm-288.053,107.178c3.156-1.265,5.707-3.755,8.234-6.132a33.925,33.925,0,0,1,5.172-4.244.939.939,0,0,0,.479-1.1.739.739,0,0,0-1.075-.143,35.731,35.731,0,0,0-5.552,4.534c-2.463,2.319-4.743,4.539-7.467,5.629a1.092,1.092,0,0,0-.71,1.055.532.532,0,0,0,.17.329A.717.717,0,0,0,2665.165,2724.763Zm-20.564,28.816a1.18,1.18,0,0,0,1.44-.514,36,36,0,0,1,4.413-4.97c1.327-1.306,2.708-2.647,3.958-4.127a1,1,0,0,0,.054-1.428h0a1.121,1.121,0,0,0-1.46.35c-1.154,1.365-2.426,2.592-3.758,3.909a38.269,38.269,0,0,0-4.762,5.382.973.973,0,0,0,.056,1.363Zm-10.772,19.9q2.089-3.14,4.261-6.231a.867.867,0,0,0-.074-1.24.967.967,0,0,0-1.237.407q-2.182,3.107-4.281,6.261a.867.867,0,0,0,.109,1.242A.97.97,0,0,0,2633.829,2773.476Zm-17.982,39.019a.9.9,0,0,0,1.092-.538,9.484,9.484,0,0,0,1.415-3.986.657.657,0,0,0-.81-.7,1.129,1.129,0,0,0-.807,1.078,8.518,8.518,0,0,1-1.164,2.974.838.838,0,0,0,.259,1.168Zm-8.047,22.614a.934.934,0,0,0,1.093-.66l.995-2.564a.87.87,0,0,0-.379-1.181.675.675,0,0,0-.429.01,14.028,14.028,0,0,1,1.162-2.487c-.322.351-.64.7-.867.565a20.865,20.865,0,0,0-1.5,3.948l-.464,1.193A.867.867,0,0,0,2607.8,2835.109Zm136.184,59.577c-.418-.122-.691.01-.766.24q-.37,1.171-.714,2.383c-1.544,5.355-2.808,10.853-6.229,15.363-1.448-.5-1.576-.414-2.417.284-1.72,1.431-2.354,4.578-2.707,8.13s-.429,7.5-1.294,10.712c-.321,1.193-1.845,1.849-2.292,3-1.4,3.653-.2,6.661,1.55,8.114l.1,2.314c.025.431.553.754,1.186.721s1.124-.406,1.1-.831l-.11-2.5a.55.55,0,0,0-.081-.24l.038-.009c1.551-4.773,3.062-10.242,4.258-15.368s2.042-9.931,1.915-13.529l-.326.025c3.709-4.675,4.993-10.345,6.582-15.864.231-.8.466-1.588.71-2.361C2744.559,2895.046,2744.334,2894.782,2743.985,2894.686Zm494.707,52.457a.812.812,0,0,0-.371.085,1.405,1.405,0,0,0-.557,1.6,10.951,10.951,0,0,1-.037,4.521,1.217,1.217,0,0,0,.726,1.426c.524.121,1.011-.329,1.116-1a13.769,13.769,0,0,0-.04-5.848A.965.965,0,0,0,3238.692,2947.144Zm-28.375,136.336-.042-.019a.611.611,0,0,0-.666.417,27.459,27.459,0,0,1-4.638,6.7l-.815.948a.622.622,0,0,0-.085.784c.167.18.477.128.693-.125l.811-.946a28.569,28.569,0,0,0,4.885-7.09A.5.5,0,0,0,3210.317,3083.479Zm-12.309-132.765a1.246,1.246,0,0,0-.236-.038,1.273,1.273,0,0,0-1.239,1.049c-.352,1.51-.794,2.967-1.281,4.5-.392,1.248-.8,2.5-1.171,3.783a1.375,1.375,0,0,0,.753,1.706,1.219,1.219,0,0,0,1.528-.915c.37-1.254.764-2.479,1.152-3.7.48-1.522.966-3.1,1.342-4.708A1.382,1.382,0,0,0,3198.008,2950.714ZM2652.85,2750.93c-1.559,2.421,2.307-1.257,0,0Zm-16.145,21.625a29.863,29.863,0,0,0,3.442-3.953,4.184,4.184,0,0,0-1.358,1.169c-.1-.232.828-1.353,1.43-2.177a25.022,25.022,0,0,0-3.461,3.952C2637.023,2771.633,2637.281,2771.723,2636.706,2772.555Zm-40.637,101.506c.173-1.561.721-3.828,1.091-5.69l.216-.41a4.954,4.954,0,0,0,.474-1.722c.026-.5-.148-.543-.387-.1l-.229.428-.347-.089q-.9,3.25-1.722,6.519C2595.6,2873.079,2595.358,2874.526,2596.069,2874.062Zm-1.417,13.358-.559-.1c-.641,1.629-1.121,5.9-1.809,5.627-.782,5.5-2.142,14.073-.841,15.023.616-2.485,1.216-6.177,1.783-9.969S2594.324,2890.317,2594.652,2887.42Zm.914,30.842q.392-4.882.958-9.753l-.082.078c.138-1.05.192-1.958.228-2.719,1.049-5.073,1.89-12.779,2.3-16.849-.292-.289-.53.7-.343.775-.287.217-1.066.383-1.712,3.047-1.214,5.627.073,5.295-.3,9.091-.185,2.75-.758,1.191-1.162,1.509-.092,1.858.127,4.347.6,3.6-.014.239-.033.483-.054.722-.593,1.216-.743,5.878-1.391,6.315C2594.64,2916.289,2594.593,2918.894,2595.565,2918.261Zm131.136,11.26c-.614.274-.325,1.185-.323,2.239.254-.147.343-.778.619-.874C2726.962,2930.3,2726.707,2930.164,2726.7,2929.521Zm-140.612,25.837c-.247-1.648-.819-2.99-1.039-1.637.124,1.1.405,1.311.519,2.506C2585.695,2955.773,2585.828,2955.335,2586.09,2955.358Zm-.144,8.443c.113-.454.232-.9.494-.881a17.241,17.241,0,0,1-.454-3.343C2585.612,2957.39,2585.988,2962.9,2585.946,2963.8Zm14.523,7.732c.933,2.893.333-2.5,0,0Zm-4.064,22.944c.386-.179-.632-3.463-.785-4.918A13.472,13.472,0,0,0,2596.4,2994.477Zm11.011,13.56c.839,1.6,1.928,7.042,2.788,7.641.952-.787-1.758-6.705-2.47-9.384C2607.531,3006.7,2608.234,3008.788,2607.415,3008.037Zm-8.426,16c.718,1.1,1.652,4.077,2.24,3.744-.51-1.431-.352-1.755-.892-3.258C2599.975,3025.261,2599.408,3023.89,2598.99,3024.034Zm18.432,15.763c1.794,4.949,4.133,11.6,7.376,16.331l-.254.114c-.1.045-.007.422.2.843s.459.727.558.684l.267-.123c.321.312.641.607.853.469-.18-1.4-1.5-3.781-2.673-6.051s-2.2-4.417-1.888-5.271a46.316,46.316,0,0,1-4.259-9.772c-1.15-3.523-2-6.957-2.6-9.271-.822-1.813-1.307-.5-2.24-3.537C2611.083,3024.165,2614.352,3031.47,2617.421,3039.8Zm9.687-10.263c-.783-2.3-1.256-2.2-1.718-1.883C2626.053,3029.054,2626.6,3029.435,2627.109,3029.534Zm-20.027,18.662a3.942,3.942,0,0,1,.911-2.177,65.232,65.232,0,0,0-5.094-10.776A54.83,54.83,0,0,0,2607.082,3048.2Zm18.972-14.137c-.3-.2.269,3.539,1.853,6.875.8-.067,1.756.762,2.553.679-1.14-2.423-.879-.722-1.73-3.53C2628.032,3037.981,2627.23,3037.374,2626.054,3034.059ZM2614.2,3049c-.9-2.39-1.293-2.129-2.171-4.531-1.146-.549.787,4.133,1.814,5.573C2613.551,3048.5,2613.364,3048.59,2614.2,3049Zm17.651-7.948c-.394-.308-1.071-2.814-1.632-1.866a17.711,17.711,0,0,0,1.743,3.5c.315-.713.112-.63.871-.353C2632.36,3041.107,2632.108,3041.052,2631.856,3041.055Zm1.015.434c1.174,3.081,1.936,1.635,1.045-.419Zm12.861-4.382c.691,1.482.869-.013,1.347.249C2646.391,3035.881,2646.213,3037.372,2645.732,3037.107Zm-33.009,21.653c.89.547-.518-1.838-1.115-3.224C2611.392,3055.849,2611.832,3057.031,2612.723,3058.76Zm18.447,5.21c.977-.426.695.953,1.784.928a19.061,19.061,0,0,1-2.085-3.481C2630.484,3061.707,2630.064,3061.971,2631.17,3063.971Zm15-7.321c-.05.75,2.386,4.755,2.968,5.347C2649.518,3061.121,2647.286,3057.738,2646.17,3056.65Zm-12.942,14.555c-.421-.808-.862-1.635-1.354-2.534-.256-.472-.565-.826-.687-.794-.107.052-.015.446.247.922.519.95.979,1.818,1.41,2.654l-.108-.054a60.54,60.54,0,0,0,8.444,14.058c.14-2.044-4.559-7.918-7.946-14.317Zm-2.276-2.575c.827,1.331-.047-.561-.628-1.516C2629.51,3065.78,2630.361,3067.685,2630.952,3068.63Zm12.067,13.842c-1.906-3.307-2.568-3.229-3.7-4.433a20.728,20.728,0,0,0,2.893,4.906C2642.4,3082.177,2642.212,3082.286,2643.018,3082.472Zm33.624-23c1.4,1.273.927,1.882,2.1,3.6.009-.766.492-.346.744-1.247-.933-1.715-1.2-1.371-2.034-2.815Zm-22.034,28.125c.844,1.12,1.319,1.3,1.547.89a12.6,12.6,0,0,1-1.534-1.841l-.315.2C2654.724,3087.383,2654.677,3087.5,2654.608,3087.6Zm40.083-4.241c1.3,1.435.489-.32-.585-1.3C2694.052,3082.317,2694.884,3083.209,2694.692,3083.359Zm12.291,17.13c1.08.9,1.7,1,2.182.874l-1.492-1.491C2707.594,3100.6,2707.753,3100.458,2706.983,3100.49Zm26.392,22.588a25.634,25.634,0,0,1-4.058-2.9c-.051.232-.337.15-.8-.166C2730.09,3121.732,2733.064,3124.223,2733.375,3123.078Zm6.436,4.478c-2.075-1.446-2.709-1.194-3.121-.654a20.075,20.075,0,0,0,3.612,2.344l.559-.725C2740.018,3128.182,2739.569,3127.807,2739.811,3127.556Zm28.463,14.916c-.258-.3-.506-.6-.35-.8-1.851-1.145-1.457-.21-3.3-1.373A8.558,8.558,0,0,0,2768.274,3142.472Zm-4.1,1.319c-1.012-.371-1.593-.351-1.734.09a15.637,15.637,0,0,0,3.264,1.56C2765.7,3145.021,2764.677,3144.344,2764.173,3143.792Zm10.286,6.7c-.62-.55-.392-.6.823-.008.6-.406-3.481-1.8-3.631-2.384C2770.241,3147.68,2771.784,3149.441,2774.459,3150.492Zm4.587,2.153c.865-.3.5.472,2.806.867.129-.449-2.055-1.308-3.788-2.122-.627-.13-.616.261-1.561-.127C2776.594,3151.581,2778.075,3152.169,2779.046,3152.645Zm2.315,5.216-2.025-.894c.706.9,3.354,1.422,4.129,1.6-.106-.31-1.629-.863-2.625-1.337C2780.9,3157.425,2781.441,3157.7,2781.362,3157.861Zm4.68-8.071a11.424,11.424,0,0,1,2.027.673c.436-.228-.241-.624-.339-.934a5.248,5.248,0,0,1-2.1-.51C2785.315,3149.2,2786.1,3149.564,2786.042,3149.79Zm61.683,25.406a5.954,5.954,0,0,0-.852.095l-.3.042c-.315.031-.315.157,0,.282a2.873,2.873,0,0,0,1.134.159c.161-.02.292-.041.413-.062a4.393,4.393,0,0,1,.769-.072l.089.091c2.393.233,3.388.59,5.1.859.577-.827-1.3-1.368-2.694-1.981-1.176.228-2.726.3-3.808.553Zm14.412,2.442a14.442,14.442,0,0,0,3.637.853C2866.766,3177.854,2864.079,3177.823,2862.137,3177.638Zm59.521,2.442c1.065-.3,2.312-.584,2.117-1.011l-2.965.4C2920.76,3179.795,2921.775,3179.722,2921.658,3180.08Zm15.176-4.271c-.71.144-.524.327-.657.494-.716.129-.614-.109-.8-.217-1.252.4-1.214.863-2.028,1.286l-.211.037c-.062.008-.115.013-.178.023-.356.063-.727.117-1.117.17-.282-.372-2.892.238-3.04-.2-.938.664-3.874.6-3.511,1.627,2.727-.53,3.231-.17,5.948-.749l-.043-.027c.649-.083,1.273-.17,1.913-.283.119-.021.226-.05.332-.077l.013.006c.161.185,1.377-.087,2.25-.224.75-.31.094-.691,2.091-.948C2938.209,3176.088,2936.418,3176.453,2936.834,3175.809Zm24.233-6.974c.945-.333.443-.6.48-.9l-2.119.619.218.69C2960.242,3168.961,2960.846,3168.667,2961.067,3168.834Zm7.388.947c-2.54.5-2.135.7-3.456,1.462a33.246,33.246,0,0,0,3.759-.61c.088-.472.9-1.006.287-1.424C2968.358,3169.437,2968.566,3169.6,2968.455,3169.781Zm-20.2-66.388c.244.177,1.321-.292,2.087-.532-.371-.04-.729-.087-.134-.34.04-.174-.256-.089-.568.009l-1.006.35C2948.794,3103.049,2948.64,3103.221,2948.257,3103.393Zm-289.16-27.725c-1.469-3.4-3.255-4.364,0,0Zm-35.6-275.357-.074.126c-.751,1.275-1.5,2.607-2.167,3.995l-.023-.121a128.542,128.542,0,0,0-7.021,14.547c-.28,1.228,1.854-.63.268,2.893,2.33-3.123,4.685-9.524,6.306-11.974a37.194,37.194,0,0,1,1.368-5.951l-.08.1c.517-1.048,1.111-2.112,1.77-3.227l.413-.7.023.146c2.624-4.293,4.492-6.579,7.739-12.667.183-.3.366-.61.555-.909.391-.614.558-1.126.38-1.144s-.643.47-1.034,1.087c-.209.335-.41.673-.614,1.009l-.006-.056C2627.906,2792.787,2625.328,2796.169,2623.492,2800.311Zm-12.3,15.328c1.766-3.757,4.359-8.623,6.9-13.25,2.053-3.761,4.051-7.356,5.4-10.184a.521.521,0,0,0,.04.3.369.369,0,0,0,.163.161.491.491,0,0,0,.513-.083,7.33,7.33,0,0,0,1.328-1.576l.3-.43a.56.56,0,0,0-.018-.76.536.536,0,0,0-.716.2l-.322.453a6.25,6.25,0,0,1-1.021,1.252.591.591,0,0,0-.077.083c.234-.5.453-.99.637-1.436-1.145.218-2.651,3.62-3.952,5.735-4.2,6.731-9.4,15.945-11.923,23.036C2609.179,2818.677,2610.3,2816.654,2611.192,2815.639Zm-15.048,170.48c.239-.335-.413-1.41-.094-1.657-.335-1.671-.865-.068-1.155-2.335-.448.267.481,1.369.545,3.263C2595.7,2985.281,2595.942,2985.173,2596.144,2986.119Zm4.488,10.062c-.283-1.8-.6-1.073-.885-2.334C2599.361,2993.673,2600.4,2996.964,2600.632,2996.181Zm13.027,23.542-.373-1.145c-.139-.439-.337-.774-.441-.745s-.075.415.065.855l.374,1.153c-.31.81.921,2.431,1.274,3.815-.11-.992.385-1.007.829-1.105a12.917,12.917,0,0,1,.6,1.179l.108.231-.019.064c.353,1.078.724,2.151.975,2.211l-.045-.17a8.108,8.108,0,0,1,.366.959c-.644.461-1.5-.918-2.2-1.029a62.041,62.041,0,0,0,2.911,9.014c1.432,3.692,3.2,7.622,4.668,10.554.936,1.933-1.292-.294.3,2.5.467-.18.833-.829,1.717,1.039.134-.224-.243-.774-.34-.735-.538-2.381-.877-4.557-.553-5.85-2.265-3.882-3.466-8.843-5.648-14.137l-.175-.124a13.992,13.992,0,0,0-1.231-3.446l.058-.2-.521-1.512-.022.07c-.016-.037-.029-.076-.045-.112l-.139-.3a18.527,18.527,0,0,0-.923-1.816l0-.009C2614.577,3019.005,2614.142,3019.586,2613.66,3019.724Zm14.775,8.531c-.441.812,1,3.03,1.69,4.324C2630.429,3032.379,2628.954,3030.248,2628.435,3028.254Zm.423,61.555.646-.379c.58-.167-3.5-5.492-2.824-6.248-3.155-5.2-6.086-10.4-8.615-14.709l-.014.073-.048-.1a39.028,39.028,0,0,0-2.5-4.622c-.347-.516-.6-.648-.575-.286a4.4,4.4,0,0,0,.69,1.6,26.161,26.161,0,0,1,1.6,3.012C2619,3073.436,2623.706,3081.829,2628.858,3089.809Zm11.259-35.388c-.21-.061-.021.341.189.771l.719,1.374c-.115-.543-.1-1.29.509-.241A2.818,2.818,0,0,0,2640.117,3054.421Zm3.48,8.67c-.1-.141-.2-.282-.3-.443-.149-.22-.278-.317-.295-.212a1.284,1.284,0,0,0,.242.59c.227.337.447.646.678.949l-.159-.076c3.707,7.066,7.195,12.918,9.835,13.257-3.185-4.326-6.741-10.552-9.384-14.361C2643.3,3061.884,2643.939,3062.842,2643.6,3063.091Zm-16.083,13.917c-.248-.456-.494-.9-.734-1.327l-.256-.459c-.347-.624-.765-1.115-.936-1.093s-.028.552.32,1.181l.271.49c.144.254.265.484.4.727-.535.681,2.024,4.886.858,4.3,2.251,3.692,5.283,8.757,8.363,13.17s6.166,8.173,8.2,9.415l-.124-.244c.474.518.95,1.023,1.295,1.339.2.185.34.253.4.212s.041-.131-.031-.3a4.28,4.28,0,0,0-.923-1.275c-.141-.13-.421-.429-.7-.736l.049.014c-2.449-4.058-7.013-10.081-8.744-11.44-3.872-5.806-3.812-7.8-7.688-14.031Zm20.064,10.285c-.183.2-.375.39-.933-.376-.006.76,1.877,2.173,2.62,3.137C2649.1,3089.326,2648.521,3089.089,2647.578,3087.292Zm76.771,28.859c-.059.3,1.589,1.4,1.4,1.631C2727.184,3118.851,2725.564,3116.964,2724.349,3116.151Zm95.117,50.619c-.009-.036-5.287-1.375-5.126-.671,1.709.412,1.426.754,3.462,1.159C2819.05,3167.484,2817.992,3166.424,2819.466,3166.77Zm52.213,12.292c1.03-.054.151-.686,1.519-.641-.644-.472-2.2.3-4.442-.077.445.188.872.379-.026.358C2868.939,3178.962,2870.572,3178.972,2871.679,3179.062Zm37.165.936c-.106.318,4.9-.073,3.695-.511-1.178.1-2.828.344-2.989.089C2908.392,3179.739,2910.228,3179.84,2908.844,3180Zm213.456-78.011c-.932.777,1.237-1.039.109,1.087.458-.542.416-.665.352-.769.515-.537,1.032-1.086,1.312-1.111.534-.773.121-.474-.156-.1-.139-.119.491-.89.841-1.433C3124.034,3099.235,3123.431,3101.041,3122.3,3101.987ZM2585.757,2947.8l.027.251a.879.879,0,0,0-.483-.258l-.1-.026c-.119-.031-.2.337-.192.829s.108.916.219.953l.107.022a.851.851,0,0,1,.3.119l.131,3.154c.222-1.212.67-1.261.655,1.652.788.574.793.57,1.513-.074-.443-2.862-1.093-4.505-1.274-8.319C2586.3,2946.473,2586.383,2948.508,2585.757,2947.8Zm17.531,69.781c-1.1-.66-2.223-3.145-2.721-1.853.668,2.729,1.723,6.418,2.942,10.054s2.581,7.212,3.729,9.763c1,.415,1.335.6,1.78-.615C2606.826,3027.319,2602.094,3018.992,2603.288,3017.584Zm123.165-89.888c.057,0,.118-.051.164-.159a7.746,7.746,0,0,0,.425-2.135,9.431,9.431,0,0,1,.209-1.319.751.751,0,0,0-.048-.588c-.089-.1-.208.01-.271.242a10.56,10.56,0,0,0-.263,1.6,6.17,6.17,0,0,1-.3,1.616.944.944,0,0,0-.021.635C2726.376,2927.66,2726.414,2927.694,2726.454,2927.7Zm-139.815,2.557c.161.005.312-.568.339-1.278l.068-1.673c.03-.71-.071-1.294-.231-1.3s-.321.566-.353,1.279l-.067,1.675C2586.367,2929.668,2586.476,2930.249,2586.639,2930.253Zm11.252,49.925a50.237,50.237,0,0,1-.932-6.539,4.067,4.067,0,0,0-.448-1.854c-.212-.242-.357.188-.323.973a56.28,56.28,0,0,0,1.093,7.945l.382,1.995c.291,3.139.814,2.683,1.239,3.8.276.074-.351-3.819-.7-4.678Zm7.361,17.615.2,1.047c.109.526.308.969.444.993h.02c.114-.025.123-.412.021-.906l-.175-.9c-.284-1.483-.763-4.239-1.546-4.751-.146-.1-.2.246-.117.763a2.108,2.108,0,0,0,.413,1.1C2604.754,2995.294,2604.881,2995.8,2605.252,2997.793Zm-3.04,40.551a4.256,4.256,0,0,0-.693-1.512c-.237-.264-.317,0-.171.576a22.112,22.112,0,0,0,.951,3.081c.245.6.544,1.028.678.98l.013,0c.125-.09.019-.664-.235-1.288A15.073,15.073,0,0,1,2602.211,3038.343Zm50.961,15.176c-.173-.072-.152.23.043.659a2.426,2.426,0,0,1,.211.89l.476.7.471.615a5.343,5.343,0,0,0-.544-1.97A2.039,2.039,0,0,0,2653.173,3053.519Zm15.633,49.205a11.2,11.2,0,0,0,.559,1.269,3.634,3.634,0,0,0,.917,1.072c.154.111.259.148.305.111s.029-.156-.067-.34a8.829,8.829,0,0,1-.456-1.021l-.144-.369a3.57,3.57,0,0,0-.856-1.1c-.339-.289-.515-.273-.386.044Zm7.313,3.792-.157-.139-.09-.02c-.456-.113-.74.216-.349,1.051l.076.165.188.212c.347.394.7.741,1.048,1.072a6.688,6.688,0,0,1,1.144,1.267,2.2,2.2,0,0,0,.59.621c.082.049.135.063.159.042s.013-.106-.063-.234a11.169,11.169,0,0,0-1.87-2.146l-.58-.577c-.141-.416.038-.588.268-.57.113.093.25.194.371.288l-.051-.013c.862,1.026,1.6,1.315,1.568,1.752,1.671,1.418.91-.648.487-1.4-1.3-1.155-1.718-1.938-3.386-3.282-.882-.143.867,1.613.954,2.162C2676.319,3106.682,2676.208,3106.594,2676.118,3106.516Zm70.8,22.78c2.773,1.845,5.671,3.7,8.543,5.7,1.406,1.351,5.817,3.537,8.45,5.117.2-.22.068-.758,1-.284-1.906-1.268-7.938-5.037-8.561-4.941l.013.053c-3.129-2.18-6.2-4.138-9.126-6.086a84.052,84.052,0,0,1-9.283-6.919,2.473,2.473,0,0,0-1.165-.647c-.238,0-.1.294.31.657A87.654,87.654,0,0,0,2746.914,3129.3Zm-11.831,1.052.259.239a1.354,1.354,0,0,0,.545.317c.037.008.059,0,.068-.011.029-.036-.026-.128-.153-.242l-.27-.246c-.275-.247-.537-.487-.755-.706a1.5,1.5,0,0,0-.547-.356c-.149-.038-.141.059.014.215C2734.5,3129.817,2734.794,3130.087,2735.083,3130.347Zm183.084,49.1,2.227-.271c.256-.031.458-.11.448-.17s-.225-.085-.481-.053l-2.223.271c-.257.031-.458.105-.451.168S2917.912,3179.478,2918.167,3179.446Zm-323.426-266.587c.027-.275,0-.505-.065-.51l-.376-.036c-.064-.006-.14.214-.168.489s0,.505.068.511l.377.034C2594.64,2913.354,2594.713,2913.137,2594.741,2912.859Zm-1.22,4.74-.059.547c-.028.279-.062.523-.092.786-.294.013-.441.961-.764.768-.176,2.033-.3,3.985.109,4.123l.019-.025c-.036.228-.077.442-.129.653a3.44,3.44,0,0,0-.041,1.338c.034.143.079.217.129.219s.131-.11.186-.337a18.577,18.577,0,0,0,.334-1.93l.071.114c.042-1.977.45-1.756.457-4.077l-.072.089c.065-.513.131-1.031.178-1.52l.052-.51c.053-.476.011-.917-.093-.982S2593.572,2917.128,2593.521,2917.6Zm6.7,47.8c-.109-.592-.214-1.149-.293-1.7-.069-.476-.208-.769-.313-.659a1.93,1.93,0,0,0-.064,1.082c.1.669.218,1.313.339,1.936l.108.561c.068.365.173.588.26.579.023,0,.046-.027.066-.062a2.411,2.411,0,0,0,.007-1.156Zm41.2,79.539-.083-.188-.1-.154c-.262-.409-.533-.816-.9-1.285-.175-.226-.281-.2-.235.058a2.367,2.367,0,0,0,.4.882c.254.322.439.6.642.9.151.337.392.883.567,1.335a1.046,1.046,0,0,1-.139.2c-.064.077.025.411.2.744.161.306.339.505.416.472a.124.124,0,0,0,.016-.016.961.961,0,0,0,.211-.355l.03-.109-.1-.277C2642.1,3046.464,2641.723,3045.605,2641.42,3044.935Zm86.189,71.468-.083-.138-.237-.244a52.308,52.308,0,0,0-4.359-3.653c-.288-.208-.506-.264-.479-.122a1.521,1.521,0,0,0,.564.633,43.875,43.875,0,0,1,3.757,3.155,2.471,2.471,0,0,0,.57.467c.177.1.309.139.343.1.017-.021.009-.063-.033-.13Zm162.243,64.4c.392-.007.707-.087.707-.183v0c0-.132.288-.247.623-.379a4.118,4.118,0,0,0,.59-.274c2.989-.256,1.282.733,2.923.833,2.256-.187,2.012-.894,3.676-1.219l-.2-.09c.286.019.572.035.863.064.5.044,1.016.084,1.581.1h-.011c.077.252.15.5-.712.579,2.006.373,5.135-.606,4.381-1.335l-.178.026.01-.006a3.469,3.469,0,0,1,.372-.21c.079-.033.117-.069.114-.1,0-.056-.114-.1-.319-.124a2.431,2.431,0,0,0-.978.107,4.049,4.049,0,0,0-.464.253l-.049-.031a6.454,6.454,0,0,0-1.983.551c-.408-.016-.809-.044-1.219-.076-.258-.023-.523-.048-.8-.068l.31-.028-.029-.542c-2.321.019-1.929.571-3.675.687-.44-.9-2.648-.258-5.926.129.143.145.746.17.744.352l.353-.035a2.007,2.007,0,0,1-.578.289c-.4.158-.892.322-.85.567C2889.135,3180.729,2889.457,3180.8,2889.852,3180.8Z" transform="translate(-2585.012 -2609.997)"/>
</svg>
